<svg width="84" height="26" viewBox="0 0 84 26" fill="none" xmlns="http://www.w3.org/2000/svg">
<g id="amazon-4" clip-path="url(#clip0_319_18621)">
<g id="Group">
<path id="Vector" fill-rule="evenodd" clip-rule="evenodd" d="M51.7997 19.9893C46.9667 23.5623 39.9377 25.4663 33.8747 25.4663C25.7874 25.5065 17.9757 22.5299 11.9657 17.1182C11.5267 16.7082 11.9067 16.1513 12.4657 16.4743C18.2856 19.8235 24.8017 21.7805 31.504 22.192C38.2062 22.6035 44.9127 21.4584 51.0987 18.8462C51.9167 18.5252 52.5907 19.4073 51.7997 19.9893Z" fill="#6A7A99"/>
<path id="Vector_2" fill-rule="evenodd" clip-rule="evenodd" d="M53.8213 17.6752C53.2063 16.8842 49.7213 17.2942 48.1683 17.4992C47.6993 17.5582 47.6113 17.1481 48.0513 16.8551C50.8343 14.8931 55.3733 15.4782 55.9013 16.1232C56.4293 16.7682 55.7553 21.3372 53.1483 23.5042C52.7383 23.8262 52.3573 23.6501 52.5333 23.2111C53.1183 21.7471 54.4363 18.4952 53.8213 17.6752Z" fill="#6A7A99"/>
<path id="Vector_3" fill-rule="evenodd" clip-rule="evenodd" d="M48.2559 3.08916V1.18917C48.2525 1.12671 48.2624 1.06425 48.2848 1.00585C48.3072 0.947446 48.3416 0.894408 48.3859 0.850179C48.4301 0.805949 48.4831 0.771502 48.5415 0.749104C48.5999 0.726707 48.6624 0.71686 48.7249 0.720174H57.2159C57.3441 0.716923 57.4685 0.764294 57.5621 0.852071C57.6557 0.939847 57.7109 1.06096 57.7159 1.18917V2.80016C57.7159 3.06416 57.4819 3.41517 57.0719 4.00017L52.6788 10.2682C54.353 10.178 56.0213 10.5305 57.5159 11.2902C57.6456 11.3644 57.7541 11.4707 57.8309 11.5989C57.9078 11.727 57.9505 11.8728 57.9548 12.0222V14.0432C57.9548 14.3362 57.6619 14.6582 57.3399 14.4822C55.954 13.7648 54.4153 13.3929 52.8548 13.3979C51.2943 13.403 49.7581 13.7849 48.3768 14.5112C48.3069 14.5362 48.232 14.5439 48.1585 14.5337C48.085 14.5235 48.015 14.4956 47.9546 14.4525C47.8941 14.4093 47.8451 14.3522 47.8115 14.286C47.7779 14.2198 47.7609 14.1464 47.7619 14.0722V12.1362C47.7331 11.6835 47.8456 11.2331 48.0838 10.8472L53.1839 3.55416H48.7608C48.6326 3.55741 48.5082 3.51004 48.4146 3.42226C48.321 3.33448 48.2658 3.21337 48.2608 3.08516L48.2559 3.08916ZM17.2969 14.8892H14.7159C14.6003 14.8776 14.4918 14.8283 14.4071 14.749C14.3223 14.6697 14.266 14.5647 14.2469 14.4502V1.21517C14.2518 1.08696 14.3071 0.965848 14.4006 0.878072C14.4942 0.790295 14.6186 0.742924 14.7469 0.746175H17.1469C17.2657 0.747791 17.3796 0.79367 17.4663 0.874867C17.5531 0.956064 17.6064 1.06673 17.6159 1.18517V2.91317H17.6749C17.9029 2.19886 18.3521 1.57552 18.9576 1.13323C19.5631 0.690934 20.2935 0.452565 21.0434 0.452565C21.7932 0.452565 22.5236 0.690934 23.1291 1.13323C23.7346 1.57552 24.1838 2.19886 24.4119 2.91317C24.6688 2.17673 25.1537 1.54128 25.7961 1.09896C26.4386 0.656638 27.2052 0.430451 27.9848 0.453175C28.5636 0.441498 29.1368 0.568359 29.6566 0.823201C30.1763 1.07804 30.6277 1.45348 30.9729 1.91817C31.7929 3.03117 31.6169 4.64217 31.6169 6.07717V14.4542C31.6119 14.5824 31.5567 14.7035 31.4631 14.7912C31.3695 14.879 31.2451 14.9264 31.1169 14.9232H28.5688C28.4469 14.9158 28.3318 14.864 28.2454 14.7776C28.159 14.6912 28.1072 14.5761 28.0999 14.4542V7.42516C28.1391 6.59481 28.1194 5.76273 28.0408 4.93517C27.9871 4.58289 27.7972 4.26578 27.512 4.05217C27.2267 3.83857 26.869 3.74557 26.5159 3.79317C26.1797 3.80288 25.8536 3.91064 25.5779 4.10323C25.3021 4.29583 25.0887 4.56484 24.9639 4.87716C24.7516 5.70877 24.6726 6.5688 24.7299 7.42516V14.4542C24.7249 14.5824 24.6697 14.7035 24.5761 14.7912C24.4825 14.879 24.3581 14.9264 24.2299 14.9232H21.6528C21.5309 14.9158 21.4158 14.864 21.3294 14.7776C21.243 14.6912 21.1912 14.5761 21.1839 14.4542V7.42516C21.1839 5.96016 21.4179 3.76418 19.6019 3.76418C17.7569 3.76418 17.8149 5.87316 17.8149 7.42516V14.4542C17.7965 14.5794 17.7325 14.6934 17.6353 14.7744C17.538 14.8554 17.4143 14.8977 17.2879 14.8932L17.2969 14.8892ZM65.0388 0.449178C68.8758 0.449178 70.9559 3.72917 70.9559 7.91817C70.9559 11.9602 68.6708 15.1822 65.0388 15.1822C61.2898 15.1822 59.2389 11.9022 59.2389 7.80117C59.2099 3.67117 61.2888 0.449178 65.0388 0.449178ZM65.0388 3.17318C63.1388 3.17318 63.0179 5.78016 63.0179 7.39116C63.0179 9.00216 62.9889 12.4581 65.0099 12.4581C67.0019 12.4581 67.1189 9.67516 67.1189 7.97716C67.1548 6.79352 67.0266 5.61062 66.7379 4.46218C66.6578 4.07862 66.4414 3.73705 66.1289 3.50078C65.8163 3.26452 65.4287 3.14956 65.0379 3.17717L65.0388 3.17318ZM75.9049 14.8892H73.3279C73.2059 14.8818 73.0908 14.83 73.0044 14.7436C72.918 14.6572 72.8662 14.5421 72.8589 14.4202V1.15618C72.8751 1.03493 72.9346 0.923625 73.0266 0.842915C73.1185 0.762205 73.2365 0.717526 73.3589 0.717152H75.7589C75.8679 0.720796 75.9727 0.760028 76.0574 0.828816C76.1421 0.897605 76.202 0.992188 76.2279 1.09816V3.11916H76.2868C77.0188 1.30316 78.0148 0.454152 79.8018 0.454152C80.3964 0.427138 80.9877 0.556184 81.517 0.82845C82.0463 1.10072 82.4951 1.50673 82.8188 2.00615C83.4928 3.06115 83.4929 4.84716 83.4929 6.13616V14.4842C83.4752 14.6023 83.4142 14.7097 83.3218 14.7855C83.2294 14.8612 83.1122 14.8999 82.9929 14.8942H80.4158C80.3046 14.8836 80.1994 14.8384 80.1152 14.7648C80.0311 14.6912 79.9722 14.593 79.9469 14.4842V7.27916C79.9469 5.81516 80.1229 3.70617 78.3359 3.70617C78.0123 3.72126 77.6998 3.82849 77.4351 4.01522C77.1704 4.20195 76.9646 4.46039 76.8419 4.76015C76.5285 5.56136 76.3888 6.41995 76.4319 7.27916V14.4262C76.4156 14.5549 76.3533 14.6734 76.2564 14.7596C76.1595 14.8458 76.0346 14.894 75.9049 14.8952V14.8892ZM41.4899 8.56215C41.5856 9.50536 41.4235 10.4569 41.0209 11.3152C40.8575 11.6544 40.6049 11.9427 40.29 12.1492C39.9752 12.3557 39.6101 12.4725 39.2339 12.4872C38.2339 12.4872 37.6519 11.7252 37.6519 10.6122C37.6519 8.41217 39.6139 8.00518 41.4889 8.00518L41.4899 8.56215ZM44.0968 14.8622C44.0134 14.9351 43.9092 14.98 43.7988 14.9906C43.6885 15.0011 43.5777 14.9769 43.4819 14.9212C42.8853 14.4384 42.3794 13.8533 41.9879 13.1932C41.4772 13.8175 40.8265 14.3127 40.0885 14.6385C39.3506 14.9643 38.5463 15.1115 37.7409 15.0682C37.2123 15.0992 36.6834 15.0154 36.1903 14.8226C35.6972 14.6298 35.2517 14.3326 34.8844 13.9513C34.5171 13.57 34.2367 13.1137 34.0624 12.6138C33.8881 12.1139 33.8241 11.5822 33.8748 11.0552C33.8445 10.1544 34.0925 9.26611 34.5851 8.51134C35.0778 7.75657 35.791 7.17198 36.6279 6.83718C38.1999 6.31575 39.8355 6.01027 41.4899 5.92916V5.60717C41.5774 4.96393 41.465 4.30933 41.1678 3.73217C40.9995 3.51382 40.7815 3.33877 40.5319 3.22155C40.2823 3.10433 40.0084 3.04832 39.7328 3.05816C39.2561 3.01655 38.7807 3.15173 38.3972 3.43792C38.0136 3.7241 37.7487 4.14131 37.6528 4.61016C37.5938 4.84416 37.4529 5.07915 37.2139 5.07915L34.7238 4.81518C34.6637 4.80672 34.6059 4.78621 34.5539 4.75487C34.5019 4.72353 34.4567 4.68202 34.4211 4.6328C34.3856 4.58359 34.3603 4.52768 34.3468 4.46846C34.3334 4.40925 34.332 4.34792 34.3428 4.28817C34.9288 1.24217 37.6529 0.334157 40.1129 0.334157C41.5266 0.273704 42.9136 0.732143 44.0128 1.62316C45.2718 2.79516 45.1549 4.37615 45.1549 6.07515V10.0882C45.1713 10.9798 45.5155 11.8342 46.1219 12.4882C46.2979 12.7222 46.3269 13.0152 46.1219 13.1622C45.5609 13.6042 44.6218 14.4242 44.0968 14.8622V14.8622ZM7.66086 8.56215C7.75659 9.50536 7.59449 10.4569 7.19185 11.3152C7.0285 11.6544 6.77585 11.9427 6.46102 12.1492C6.14619 12.3557 5.78108 12.4725 5.40486 12.4872C4.40486 12.4872 3.82286 11.7252 3.82286 10.6122C3.82286 8.41217 5.78485 8.00518 7.65985 8.00518L7.66086 8.56215ZM10.2389 14.8622C10.1554 14.9351 10.0512 14.98 9.94084 14.9906C9.83053 15.0011 9.71967 14.9769 9.62386 14.9212C9.02728 14.4384 8.52139 13.8532 8.12985 13.1932C7.61916 13.8175 6.96845 14.3127 6.23055 14.6385C5.49264 14.9643 4.68832 15.1115 3.88286 15.0682C3.35434 15.0992 2.82537 15.0154 2.33229 14.8226C1.83921 14.6298 1.39371 14.3326 1.0264 13.9513C0.659085 13.57 0.378659 13.1137 0.204393 12.6138C0.0301277 12.1139 -0.0338427 11.5822 0.0168627 11.0552C-0.0135014 10.1544 0.234506 9.26611 0.727129 8.51134C1.21975 7.75657 1.93304 7.17198 2.76985 6.83718C4.34193 6.31575 5.97755 6.01027 7.63185 5.92916V5.60717C7.71941 4.96393 7.607 4.30933 7.30986 3.73217C7.14149 3.51382 6.92346 3.33877 6.67389 3.22155C6.42432 3.10433 6.1504 3.04832 5.87485 3.05816C5.39811 3.01655 4.92273 3.15173 4.53919 3.43792C4.15564 3.7241 3.89072 4.14131 3.79486 4.61016C3.73586 4.84416 3.58985 5.07915 3.35585 5.07915L0.865862 4.81518C0.805725 4.80672 0.747911 4.78621 0.695894 4.75487C0.643877 4.72353 0.598722 4.68202 0.563143 4.6328C0.527563 4.58359 0.502285 4.52768 0.488832 4.46846C0.475379 4.40925 0.474025 4.34792 0.48485 4.28817C1.07085 1.24217 3.79485 0.334157 6.25485 0.334157C7.66857 0.273704 9.05562 0.732143 10.1549 1.62316C11.4139 2.79516 11.2969 4.37615 11.2969 6.07515V10.0882C11.3134 10.9798 11.6576 11.8342 12.2639 12.4882C12.4399 12.7222 12.4689 13.0152 12.2639 13.1622C11.7069 13.6012 10.7699 14.4212 10.2429 14.8622H10.2389Z" fill="#6A7A99"/>
</g>
</g>
<defs>
<clipPath id="clip0_319_18621">
<rect width="83.493" height="25.138" fill="white" transform="translate(0 0.329102)"/>
</clipPath>
</defs>
</svg>
