<svg width="83" height="20" viewBox="0 0 83 20" fill="none" xmlns="http://www.w3.org/2000/svg">
<g id="amd-logo-1-2" clip-path="url(#clip0_319_18626)">
<path id="Vector" d="M19.8312 18.6611H15.2642L13.8642 15.2921H6.25716L4.98416 18.6611H0.493164L7.35416 1.6441H12.2702L19.8312 18.6611ZM9.87516 5.7101L7.37516 12.3221H12.6152L9.87516 5.7101ZM36.4182 1.6441H40.1112V18.6611H35.8692V8.0291L31.2782 13.3681H30.6292L26.0382 8.0291V18.6611H21.7932V1.6441H25.4932L30.9532 7.9571L36.4182 1.6441ZM50.8602 1.6441C57.0732 1.6441 60.2662 5.5111 60.2662 10.1771C60.2662 15.0671 57.1722 18.6611 50.3862 18.6611H43.3492V1.6441H50.8602ZM47.5932 15.5421H50.3622C54.6292 15.5421 55.9012 12.6421 55.9012 10.1511C55.9012 7.2311 54.3292 4.7621 50.3122 4.7621H47.5932V15.5421ZM68.7052 5.6791L63.3562 0.329102H82.8292V19.8031L77.4802 14.4541V5.6791H68.7052ZM68.6992 6.7511L63.1932 12.2581V19.9671H70.9012L76.4082 14.4601H68.6992V6.7511Z" fill="#6A7A99"/>
</g>
<defs>
<clipPath id="clip0_319_18626">
<rect width="82.336" height="19.638" fill="white" transform="translate(0.493164 0.329102)"/>
</clipPath>
</defs>
</svg>
