<svg width="75" height="43" viewBox="0 0 75 43" fill="none" xmlns="http://www.w3.org/2000/svg">
<g id="cisco-2-1-2">
<g id="Group">
<path id="Vector" d="M24.7297 37.77H21.7207V25.8459H24.7297V37.77Z" fill="#6A7A99"/>
<g id="Group_2">
<g id="Group_3">
<path id="Vector_2" d="M48.9912 29.2632C48.2144 28.8417 47.3441 28.6221 46.4603 28.625C46.0309 28.6014 45.6013 28.6668 45.1983 28.8169C44.7953 28.9669 44.4276 29.1984 44.1183 29.4971C43.8089 29.7957 43.5646 30.1552 43.4006 30.5527C43.2366 30.9502 43.1565 31.3772 43.1652 31.8071C43.1562 32.2371 43.2361 32.6643 43.3999 33.062C43.5638 33.4597 43.808 33.8193 44.1173 34.1182C44.4267 34.417 44.7945 34.6488 45.1977 34.7988C45.6009 34.9489 46.0308 35.0141 46.4603 34.9902C47.3434 34.9922 48.2131 34.7744 48.9912 34.3569V37.5571C48.1024 37.8296 47.1789 37.9722 46.2493 37.9809C45.4198 38.0193 44.5912 37.8872 43.8148 37.5928C43.0384 37.2983 42.3307 36.8478 41.7353 36.269C41.1397 35.6904 40.6691 34.9961 40.3524 34.2285C40.0358 33.4609 39.8799 32.6364 39.8943 31.8061C39.8807 30.9763 40.0372 30.1523 40.3542 29.3852C40.6712 28.6182 41.1419 27.9244 41.7373 27.3462C42.3327 26.7681 43.0403 26.3182 43.8162 26.0239C44.5922 25.7297 45.4203 25.5973 46.2493 25.6352C47.1798 25.6378 48.1044 25.7821 48.9912 26.064V29.2632ZM17.5843 29.2632C16.8088 28.8409 15.9392 28.6216 15.0562 28.626C14.6265 28.6016 14.1964 28.6667 13.7929 28.8164C13.3893 28.9661 13.0211 29.1974 12.7113 29.4961C12.4012 29.7948 12.1564 30.1544 11.992 30.5522C11.8277 30.9501 11.7474 31.3777 11.7563 31.8081C11.7473 32.2386 11.8275 32.6664 11.9917 33.0644C12.1558 33.4625 12.4005 33.8221 12.7103 34.1211C13.0203 34.4199 13.3887 34.6515 13.7924 34.8013C14.1961 34.951 14.6264 35.0157 15.0562 34.9912C15.9385 34.9942 16.8075 34.7763 17.5843 34.3579V37.5581C16.6947 37.832 15.77 37.9746 14.8393 37.9819C14.0101 38.0203 13.1818 37.8882 12.4057 37.5937C11.6296 37.2993 10.9223 36.8488 10.3273 36.27C9.73234 35.6911 9.26233 34.9966 8.94638 34.229C8.63042 33.4614 8.47518 32.6371 8.49026 31.8071C8.47651 30.9777 8.63274 30.1544 8.94937 29.3877C9.26599 28.621 9.7363 27.9271 10.3313 27.3491C10.9262 26.7711 11.6332 26.3213 12.4087 26.0268C13.1841 25.7324 14.0116 25.5997 14.8402 25.6372C15.7714 25.6383 16.6968 25.7821 17.5843 26.064V29.2632ZM58.4572 28.6709C58.0454 28.667 57.6369 28.7457 57.2559 28.9023C56.875 29.059 56.5293 29.2905 56.2393 29.583C55.9493 29.8754 55.7209 30.2228 55.5675 30.605C55.4141 30.9871 55.3389 31.3964 55.3463 31.8081C55.3385 32.2201 55.4135 32.6292 55.5667 33.0117C55.7199 33.3942 55.9482 33.7424 56.2382 34.0351C56.5283 34.3279 56.8741 34.5595 57.2553 34.7163C57.6364 34.8731 58.0451 34.9521 58.4572 34.9482C58.8694 34.952 59.2781 34.8731 59.6592 34.7163C60.0403 34.5595 60.3862 34.3279 60.6763 34.0351C60.9665 33.7425 61.1951 33.3947 61.3487 33.0122C61.5022 32.6297 61.5776 32.2202 61.5703 31.8081C61.5766 31.3959 61.5002 30.9867 61.3456 30.6045C61.191 30.2223 60.9614 29.8749 60.6703 29.583C60.3802 29.2906 60.0345 29.0595 59.6535 28.9028C59.2726 28.7462 58.8642 28.6671 58.4523 28.6709H58.4572ZM64.7523 31.8071C64.7599 32.6307 64.6011 33.4476 64.2857 34.2085C63.9702 34.9693 63.5045 35.6587 62.9163 36.2353C62.3281 36.812 61.6296 37.2641 60.8625 37.5644C60.0955 37.8648 59.2757 38.0069 58.4523 37.9829C57.629 38.007 56.8092 37.8651 56.0421 37.5649C55.2751 37.2648 54.5765 36.8128 53.9882 36.2363C53.3999 35.6596 52.934 34.97 52.6186 34.209C52.3031 33.4479 52.1445 32.6309 52.1522 31.8071C52.1452 30.9837 52.3043 30.1672 52.6201 29.4067C52.936 28.6462 53.402 27.9575 53.9903 27.3813C54.5785 26.8051 55.2769 26.3532 56.0438 26.0532C56.8107 25.7532 57.6302 25.6111 58.4533 25.6352C59.2763 25.6115 60.0955 25.754 60.8622 26.0542C61.6289 26.3544 62.3271 26.8061 62.9152 27.3823C63.5033 27.9585 63.9691 28.6469 64.2849 29.4072C64.6007 30.1675 64.76 30.9839 64.7533 31.8071H64.7523ZM36.1353 28.5571C35.3679 28.3457 34.5787 28.2241 33.7833 28.1943C32.5773 28.1943 31.9223 28.5939 31.9223 29.1709C31.9223 29.8979 32.8063 30.1511 33.3013 30.3071L34.1313 30.5713C34.9195 30.7379 35.6288 31.1652 36.1446 31.7842C36.6603 32.4032 36.9526 33.1775 36.9743 33.9829C36.9743 36.9829 34.3403 37.9829 32.0373 37.9829C30.9473 37.9728 29.8605 37.864 28.7902 37.6572V34.9111C29.7144 35.1799 30.6692 35.3289 31.6313 35.355C33.1313 35.355 33.8162 34.9172 33.8162 34.2422C33.8162 33.6422 33.2163 33.2892 32.4743 33.0552C32.2933 32.9942 32.0182 32.9092 31.8322 32.8472C30.1562 32.3172 28.7592 31.3319 28.7592 29.3589C28.7592 27.1289 30.4293 25.6313 33.2023 25.6313C34.1913 25.6447 35.1754 25.7718 36.1353 26.0102V28.5552V28.5571Z" fill="#6A7A99"/>
<path id="Vector_3" d="M5.29852 13.032C5.29746 12.6366 5.1395 12.2578 4.85938 11.9788C4.57925 11.6998 4.19986 11.5437 3.8045 11.5442C3.4094 11.5439 3.03034 11.7 2.75031 11.9788C2.47027 12.2575 2.31213 12.6359 2.31055 13.031V16.1619C2.32145 16.5513 2.48343 16.9215 2.76227 17.1936C3.04111 17.4657 3.41489 17.6185 3.8045 17.6199C4.19458 17.62 4.56922 17.4675 4.84839 17.1951C5.12756 16.9226 5.28912 16.5518 5.29852 16.1619V13.032ZM13.5035 8.92407C13.5035 8.52784 13.3461 8.14761 13.0659 7.86743C12.7857 7.58725 12.4058 7.42993 12.0095 7.42993C11.6133 7.42993 11.2333 7.58725 10.9531 7.86743C10.6729 8.14761 10.5155 8.52784 10.5155 8.92407V16.1619C10.5155 16.5581 10.6729 16.9383 10.9531 17.2185C11.2333 17.4987 11.6133 17.656 12.0095 17.656C12.4058 17.656 12.7857 17.4987 13.0659 17.2185C13.3461 16.9383 13.5035 16.5581 13.5035 16.1619V8.9231V8.92407ZM21.7095 3.302C21.7085 2.90673 21.5507 2.52791 21.2708 2.24878C20.9909 1.96965 20.6118 1.81323 20.2165 1.81323C19.8209 1.81297 19.4413 1.96941 19.1612 2.24878C18.8811 2.52815 18.7233 2.90736 18.7225 3.30298V19.136C18.7322 19.5258 18.8938 19.8965 19.173 20.1687C19.4521 20.4409 19.8266 20.5931 20.2165 20.593C20.6064 20.5931 20.9809 20.4409 21.2601 20.1687C21.5392 19.8965 21.7009 19.5258 21.7105 19.136L21.7095 3.302ZM29.9146 8.92407C29.9146 8.52784 29.7571 8.14761 29.4769 7.86743C29.1967 7.58725 28.8168 7.42993 28.4205 7.42993C28.0243 7.42993 27.6443 7.58725 27.3641 7.86743C27.0839 8.14761 26.9265 8.52784 26.9265 8.92407V16.1619C26.9265 16.5581 27.0839 16.9383 27.3641 17.2185C27.6443 17.4987 28.0243 17.656 28.4205 17.656C28.8168 17.656 29.1967 17.4987 29.4769 17.2185C29.7571 16.9383 29.9146 16.5581 29.9146 16.1619V8.9231V8.92407ZM38.1145 13.032C38.1148 12.6378 37.9585 12.2597 37.6801 11.9807C37.4016 11.7017 37.0237 11.5447 36.6295 11.5442C36.2343 11.5434 35.8549 11.6994 35.5747 11.9783C35.2946 12.2571 35.1366 12.6357 35.1355 13.031V16.1619C35.1355 16.5568 35.2924 16.9358 35.5717 17.2151C35.8509 17.4943 36.2296 17.6511 36.6245 17.6511C37.0186 17.6498 37.396 17.4922 37.6742 17.2131C37.9524 16.934 38.1085 16.5559 38.1085 16.1619L38.1145 13.032ZM46.3235 8.92407C46.3139 8.53552 46.1527 8.16622 45.8746 7.89478C45.5964 7.62333 45.2232 7.47109 44.8345 7.47095C44.4459 7.47109 44.0726 7.62333 43.7944 7.89478C43.5163 8.16622 43.3552 8.53552 43.3455 8.92407V16.1619C43.3455 16.5568 43.5024 16.9358 43.7816 17.2151C44.0609 17.4943 44.4396 17.6511 44.8345 17.6511C45.2294 17.6511 45.6081 17.4943 45.8874 17.2151C46.1666 16.9358 46.3235 16.5568 46.3235 16.1619V8.9231V8.92407ZM54.5345 3.302C54.5343 2.90727 54.3772 2.52878 54.098 2.24976C53.8188 1.97073 53.4403 1.81421 53.0455 1.81421C52.6508 1.81421 52.2722 1.97073 51.993 2.24976C51.7138 2.52878 51.5568 2.90727 51.5565 3.302V19.136C51.5447 19.4047 51.6059 19.6716 51.7335 19.9084C51.8612 20.1453 52.0505 20.3433 52.2815 20.4812C52.5126 20.6188 52.7766 20.6912 53.0455 20.6912C53.3145 20.6912 53.5784 20.6188 53.8095 20.4812C54.0407 20.3433 54.2301 20.145 54.3578 19.908C54.4854 19.671 54.5466 19.4039 54.5345 19.135V3.302ZM62.7435 8.92407C62.7428 8.72688 62.7033 8.53174 62.6271 8.34985C62.5509 8.16797 62.4396 8.00284 62.2995 7.86401C62.1592 7.72565 61.9931 7.61636 61.8105 7.54224C61.6279 7.46811 61.4326 7.43048 61.2355 7.43189C60.8405 7.43215 60.4618 7.5895 60.1826 7.8689C59.9033 8.1483 59.7465 8.52712 59.7465 8.92212V16.1609C59.746 16.3569 59.7842 16.551 59.8588 16.7322C59.9335 16.9134 60.0431 17.0783 60.1815 17.217C60.4609 17.497 60.84 17.6545 61.2355 17.655C61.4329 17.6568 61.6285 17.6195 61.8113 17.5452C61.9941 17.4708 62.1604 17.3609 62.3005 17.2219C62.4408 17.0831 62.5522 16.9182 62.6282 16.7361C62.7043 16.554 62.7435 16.3582 62.7435 16.1609V8.92212V8.92407ZM70.9375 13.032C70.9375 12.6365 70.7804 12.2574 70.5008 11.9778C70.2212 11.6982 69.842 11.5408 69.4465 11.5408C69.0511 11.5408 68.6718 11.6982 68.3922 11.9778C68.1126 12.2574 67.9555 12.6365 67.9555 13.032V16.1619C67.9551 16.358 67.9934 16.5523 68.0681 16.7336C68.1429 16.9149 68.2526 17.0797 68.3911 17.2185C68.5296 17.3574 68.6941 17.4675 68.8752 17.5427C69.0563 17.618 69.2504 17.6569 69.4465 17.657C69.6425 17.6567 69.8364 17.6179 70.0173 17.5427C70.1983 17.4675 70.3626 17.3572 70.5009 17.2185C70.6393 17.0798 70.749 16.9152 70.8237 16.7341C70.8985 16.553 70.9368 16.3588 70.9365 16.1628V13.033L70.9375 13.032Z" fill="#6A7A99"/>
<path id="Vector_4" d="M69.2136 36.2V36.387H68.6816V37.7703H68.4626V36.3879H67.9287V36.2H69.2136ZM69.3247 36.2H69.6666L70.1366 37.488H70.1447L70.5996 36.2009H70.9357V37.7703H70.7117V36.4832H70.7036L70.2277 37.7703H70.0206L69.5557 36.4832H69.5457V37.7703H69.3267L69.3247 36.2Z" fill="#6A7A99"/>
</g>
</g>
</g>
</g>
</svg>
