<svg width="122" height="25" viewBox="0 0 122 25" fill="none" xmlns="http://www.w3.org/2000/svg">
<g id="dropcam" clip-path="url(#clip0_319_18636)">
<g id="Group">
<path id="Vector" fill-rule="evenodd" clip-rule="evenodd" d="M4.07369 2.56403C4.98195 1.77486 6.03745 1.17328 7.17932 0.79397C8.32118 0.414663 9.52684 0.265134 10.7268 0.354004C11.9267 0.442875 13.0972 0.768385 14.1707 1.31177C15.2442 1.85516 16.1996 2.60567 16.9817 3.52003C18.6635 5.22076 19.6458 7.49073 19.7343 9.88095C19.8228 12.2712 19.0111 14.6076 17.4597 16.428L10.2887 23.599C8.85469 22.643 6.46469 20.731 7.42069 18.818C9.33269 16.428 11.7207 14.518 13.6357 12.125C15.0697 10.213 14.1137 6.38803 11.2457 5.91003C10.6021 5.68507 9.91155 5.62912 9.24015 5.74753C8.56875 5.86594 7.939 6.15475 7.4112 6.5863C6.88341 7.01785 6.47525 7.57768 6.22583 8.21218C5.9764 8.84668 5.89406 9.53459 5.98669 10.21C5.98669 12.6 7.89869 14.034 9.33269 15.469C7.89869 16.903 5.98669 17.859 5.98669 19.769C4.55269 17.857 2.16269 16.423 1.20569 14.032C0.331664 12.0752 0.139235 9.88182 0.659189 7.80273C1.17914 5.72364 2.38143 3.87903 4.07369 2.56403V2.56403Z" fill="#6A7A99"/>
<g id="Group_2">
<path id="Vector_2" fill-rule="evenodd" clip-rule="evenodd" d="M34.6701 2.56397C35.1481 1.12997 36.5821 1.60797 37.5381 1.60797V19.291H34.6701V17.861C33.5191 18.789 32.0851 19.2951 30.6066 19.2951C29.1281 19.2951 27.6941 18.789 26.5431 17.861C25.2191 16.6521 24.4261 14.9694 24.3366 13.1788C24.2471 11.3883 24.8683 9.63483 26.0651 8.29997C27.1412 7.12867 28.6051 6.38656 30.186 6.21082C31.7669 6.03508 33.3579 6.4376 34.6651 7.34397L34.6701 2.56397ZM30.3701 8.77897C27.9801 9.25697 26.0701 12.603 27.9801 14.994C28.3372 15.5149 28.825 15.9327 29.3947 16.2055C29.9644 16.4783 30.5957 16.5964 31.2255 16.5479C31.8552 16.4995 32.4611 16.2862 32.9824 15.9296C33.5036 15.5729 33.9218 15.0854 34.1951 14.516C35.6261 12.125 33.2351 8.77797 30.3671 8.77797L30.3701 8.77897Z" fill="#6A7A99"/>
</g>
<path id="Vector_3" fill-rule="evenodd" clip-rule="evenodd" d="M39.9277 6.38793H42.7957V7.34393C43.7517 5.90993 45.6637 5.90993 47.5767 6.38793C47.0987 7.34393 46.6207 7.82193 46.6207 8.77793C44.7087 8.29993 42.7967 9.25593 42.7967 10.6899V17.8609C42.3177 19.2999 40.8837 19.2999 39.9277 19.2999V6.38793Z" fill="#6A7A99"/>
<g id="Group_3">
<path id="Vector_4" fill-rule="evenodd" clip-rule="evenodd" d="M51.8783 6.38895C56.6593 4.47695 61.4393 9.25695 60.4783 14.0379C59.5173 18.8189 52.8293 21.2089 49.4783 17.8619C45.6543 14.5159 47.0883 7.34495 51.8683 6.38895H51.8783ZM53.3123 8.77895C52.5096 8.9931 51.7776 9.41521 51.1901 10.0027C50.6026 10.5902 50.1805 11.3222 49.9663 12.1249C49.8682 12.6704 49.8953 13.2309 50.0455 13.7644C50.1957 14.2978 50.4651 14.7902 50.8333 15.2043C51.2016 15.6184 51.6591 15.9434 52.1714 16.1549C52.6836 16.3663 53.2372 16.4587 53.7903 16.4249C55.7023 16.4249 57.6143 14.9909 57.6143 13.0789C57.6143 10.6909 55.2253 8.30095 53.3143 8.77895H53.3123Z" fill="#6A7A99"/>
</g>
<g id="Group_4">
<path id="Vector_5" fill-rule="evenodd" clip-rule="evenodd" d="M62.3965 6.38813H65.2645V7.34413C66.5716 6.43776 68.1627 6.03524 69.7436 6.21098C71.3245 6.38671 72.7883 7.12882 73.8645 8.30013C74.4555 8.91441 74.9142 9.64336 75.2123 10.4419C75.5104 11.2405 75.6416 12.0917 75.5977 12.943C75.5539 13.7943 75.3359 14.6275 74.9573 15.3912C74.5787 16.1549 74.0475 16.8328 73.3965 17.3831C71.4845 19.7731 67.6595 19.7731 65.2695 18.3391V22.6391C64.7915 24.0731 63.3575 24.0731 62.4015 24.0731V6.38813H62.3965ZM68.6115 8.77813C65.7435 9.25613 64.3115 12.6021 65.7435 14.5151C67.1775 16.9051 71.0025 16.9051 71.9585 14.5151C73.8695 12.1241 71.4795 8.77813 68.6115 8.77813Z" fill="#6A7A99"/>
</g>
<path id="Vector_6" fill-rule="evenodd" clip-rule="evenodd" d="M80.5623 6.86692C81.7722 6.18845 83.1676 5.91522 84.544 6.08725C85.9205 6.25928 87.2057 6.86754 88.2113 7.82292C87.7333 8.30092 87.2553 9.25692 86.2993 9.73492C85.8537 9.37392 85.3303 9.12144 84.7704 8.99741C84.2105 8.87339 83.6294 8.88122 83.073 9.02029C82.5166 9.15936 82.0002 9.42586 81.5645 9.79875C81.1288 10.1716 80.7857 10.6407 80.5623 11.1689C80.3546 11.735 80.2801 12.3413 80.3448 12.9409C80.4094 13.5404 80.6114 14.1169 80.9351 14.6257C81.2588 15.1344 81.6955 15.5617 82.2111 15.8743C82.7268 16.1868 83.3076 16.3763 83.9083 16.4279C84.8643 16.4279 85.8204 15.9499 86.7764 15.9499C87.6302 16.3259 88.3123 17.008 88.6883 17.8619C85.3423 20.7299 79.6053 19.7739 78.1713 15.4719C76.2593 12.6029 77.6933 8.77692 80.5623 6.86692Z" fill="#6A7A99"/>
<g id="Group_5">
<path id="Vector_7" fill-rule="evenodd" clip-rule="evenodd" d="M88.6897 14.9929C87.2577 10.6909 90.6017 5.90991 94.9047 5.90991C96.6258 5.98504 98.271 6.63996 99.5728 7.76826C100.875 8.89656 101.757 10.4319 102.076 12.1249V19.2959C100.642 19.2959 99.6857 19.2959 98.7297 18.3399C95.3837 20.7299 90.1297 18.8179 88.6907 14.9939L88.6897 14.9929ZM94.9047 8.77791C94.2464 8.90177 93.6272 9.18132 93.0988 9.59322C92.5705 10.0051 92.1484 10.5374 91.8677 11.1457C91.587 11.754 91.4559 12.4205 91.4853 13.0898C91.5147 13.7591 91.7038 14.4116 92.0367 14.9929C93.9487 17.3829 97.7737 16.9049 98.7297 14.5149C98.9745 13.8845 99.064 13.2045 98.9906 12.5322C98.9172 11.8599 98.683 11.2152 98.3078 10.6526C97.9327 10.0899 97.4276 9.62582 96.8353 9.29953C96.243 8.97323 95.5808 8.79432 94.9047 8.77791V8.77791Z" fill="#6A7A99"/>
</g>
<path id="Vector_8" fill-rule="evenodd" clip-rule="evenodd" d="M103.987 6.38895H106.855V7.34495C108.289 5.43295 111.636 5.91095 113.548 7.82295C115.938 4.95495 120.719 5.91095 121.675 9.25695C122.153 12.1249 121.675 15.4719 121.675 18.3399C121.675 19.2959 120.241 19.2959 118.807 19.2959C118.807 16.4279 119.285 13.5589 118.807 10.6959C118.714 10.1941 118.448 9.74069 118.055 9.41442C117.662 9.08815 117.168 8.90954 116.657 8.90954C116.147 8.90954 115.652 9.08815 115.26 9.41442C114.867 9.74069 114.601 10.1941 114.507 10.6959V19.2959H111.639C111.719 16.2604 111.559 13.2234 111.161 10.2129C110.683 8.30095 107.337 8.77895 107.337 10.6909C106.94 13.5394 106.78 16.416 106.859 19.2909H103.987V6.38895Z" fill="#6A7A99"/>
</g>
</g>
<defs>
<clipPath id="clip0_319_18636">
<rect width="121.516" height="23.743" fill="white" transform="translate(0.373047 0.329102)"/>
</clipPath>
</defs>
</svg>
