<svg width="83" height="26" viewBox="0 0 83 26" fill="none" xmlns="http://www.w3.org/2000/svg">
<g id="logitech-2-1-3-1" clip-path="url(#clip0_319_18650)">
<path id="Vector" d="M0.888672 17.8991V0.693102H3.91067V17.8991H0.888672ZM11.6477 5.4171C10.7926 5.39783 9.94225 5.54987 9.1468 5.86425C8.35135 6.17864 7.62686 6.64902 7.01598 7.24768C6.4051 7.84635 5.92019 8.56121 5.58982 9.35015C5.25944 10.1391 5.09027 10.9862 5.09227 11.8415C5.09427 12.6968 5.2674 13.5431 5.60147 14.3305C5.93554 15.1178 6.42379 15.8304 7.03746 16.4262C7.65114 17.022 8.37783 17.489 9.17474 17.7997C9.97165 18.1103 10.8227 18.2584 11.6777 18.2351C12.526 18.2435 13.3676 18.0835 14.1536 17.7642C14.9396 17.4449 15.6545 16.9728 16.2566 16.3751C16.8588 15.7775 17.3364 15.0663 17.6616 14.2827C17.9868 13.4991 18.1533 12.6588 18.1513 11.8104C18.1493 10.962 17.9789 10.1225 17.65 9.34043C17.3211 8.55838 16.8403 7.84941 16.2353 7.25461C15.6303 6.65982 14.9133 6.19103 14.1258 5.87543C13.3383 5.55984 12.496 5.40371 11.6477 5.4161V5.4171ZM11.6127 8.3291C12.4132 8.32657 13.1899 8.60157 13.8106 9.1073C14.4312 9.61302 14.8573 10.3182 15.0165 11.1028C15.1757 11.8874 15.058 12.7029 14.6835 13.4105C14.309 14.1181 13.7009 14.674 12.9626 14.9836C12.2244 15.2933 11.4016 15.3375 10.6344 15.1088C9.86722 14.88 9.20301 14.3924 8.75486 13.729C8.30672 13.0657 8.10234 12.2675 8.17651 11.4703C8.25068 10.6732 8.59882 9.92642 9.16167 9.3571C9.81117 8.70466 10.6921 8.33519 11.6127 8.3291V8.3291ZM25.7767 5.4171C24.9216 5.39783 24.0713 5.54987 23.2758 5.86425C22.4804 6.17864 21.7559 6.64902 21.145 7.24768C20.5341 7.84635 20.0492 8.56121 19.7188 9.35015C19.3884 10.1391 19.2193 10.9862 19.2213 11.8415C19.2233 12.6968 19.3964 13.5431 19.7305 14.3305C20.0645 15.1178 20.5528 15.8304 21.1665 16.4262C21.7801 17.022 22.5068 17.489 23.3037 17.7997C24.1006 18.1103 24.9517 18.2584 25.8067 18.2351C26.6606 18.2559 27.51 18.1041 28.3039 17.7888C29.0977 17.4735 29.8198 17.0012 30.4267 16.4001C31.0337 15.799 31.5131 15.0816 31.8361 14.2908C32.1591 13.5001 32.3192 12.6522 32.3067 11.7981C32.3914 10.6198 32.041 9.45127 31.3217 8.5141L32.1597 8.2271V5.7741H27.8727C27.1972 5.54002 26.4876 5.41939 25.7727 5.4171H25.7767ZM25.7417 8.3291C26.5422 8.32703 27.3186 8.60243 27.9389 9.10841C28.5592 9.61439 28.985 10.3197 29.1438 11.1043C29.3026 11.8888 29.1846 12.7042 28.8099 13.4116C28.4352 14.119 27.827 14.6746 27.0887 14.984C26.3504 15.2934 25.5277 15.3374 24.7607 15.1085C23.9936 14.8797 23.3296 14.392 22.8816 13.7286C22.4336 13.0653 22.2293 12.2671 22.3035 11.4701C22.3777 10.673 22.7259 9.92635 23.2887 9.3571C23.9387 8.70418 24.8204 8.33466 25.7417 8.3291ZM29.2417 18.7371C29.2417 19.6622 28.8742 20.5494 28.2201 21.2035C27.5659 21.8576 26.6787 22.2251 25.7537 22.2251C24.8286 22.2251 23.9414 21.8576 23.2873 21.2035C22.6332 20.5494 22.2657 19.6622 22.2657 18.7371H19.1987C19.1843 19.5992 19.3462 20.4551 19.6744 21.2524C20.0025 22.0497 20.49 22.7716 21.107 23.3738C21.7241 23.976 22.4576 24.4459 23.2626 24.7546C24.0676 25.0633 24.9272 25.2044 25.7887 25.1691C26.6421 25.1909 27.4912 25.04 28.2849 24.7256C29.0786 24.4112 29.8006 23.9397 30.4076 23.3394C31.0147 22.7391 31.4942 22.0224 31.8174 21.2322C32.1406 20.442 32.3009 19.5947 32.2887 18.7411L29.2417 18.7371ZM33.5237 17.8961V5.7741H36.5467V17.8991L33.5237 17.8961ZM39.4807 17.8961V8.4901H37.8597V5.7741H39.4807V2.0511H42.5027V5.7741H44.1677V8.4901H42.5027V17.8991L39.4807 17.8961ZM37.0297 2.3291C37.0297 2.72466 36.9124 3.11134 36.6926 3.44024C36.4728 3.76914 36.1605 4.02549 35.795 4.17686C35.4296 4.32824 35.0275 4.36784 34.6395 4.29067C34.2515 4.2135 33.8952 4.02302 33.6155 3.74332C33.3358 3.46361 33.1453 3.10724 33.0681 2.71928C32.9909 2.33132 33.0305 1.92919 33.1819 1.56373C33.3333 1.19828 33.5896 0.885925 33.9185 0.666162C34.2474 0.4464 34.6341 0.329102 35.0297 0.329102C35.5601 0.329102 36.0688 0.539815 36.4439 0.914888C36.819 1.28996 37.0297 1.79867 37.0297 2.3291ZM50.9627 5.4091C50.1083 5.39177 49.2593 5.54909 48.4679 5.87141C47.6764 6.19374 46.9591 6.67428 46.3599 7.28359C45.7607 7.89291 45.2922 8.61816 44.9832 9.4149C44.6741 10.2116 44.531 11.0631 44.5627 11.9171C44.5276 12.7693 44.6721 13.6194 44.9866 14.4123C45.3011 15.2052 45.7786 15.9231 46.3883 16.5196C46.998 17.1161 47.7262 17.5778 48.5258 17.8749C49.3254 18.172 50.1784 18.2978 51.0297 18.2441C52.0569 18.2766 53.0791 18.088 54.0271 17.6912C54.9751 17.2944 55.8269 16.6986 56.5247 15.9441L54.5047 13.9211C53.5983 14.8704 52.3764 15.4557 51.0687 15.5671C50.3103 15.5969 49.5651 15.3618 48.9612 14.9022C48.3572 14.4426 47.932 13.787 47.7587 13.0481H57.1767V12.2161C57.1767 8.8951 55.2547 5.4101 50.9677 5.4101L50.9627 5.4091ZM50.8627 8.0701C51.6051 8.02741 52.337 8.26201 52.9162 8.72838C53.4955 9.19475 53.8809 9.85965 53.9977 10.5941H47.6677C47.8163 9.86284 48.2193 9.20795 48.8052 8.74582C49.3911 8.2837 50.1219 8.04427 50.8677 8.0701H50.8627ZM64.7317 18.2451C63.8886 18.246 63.0536 18.0807 62.2743 17.7589C61.4951 17.437 60.7869 16.9649 60.1901 16.3693C58.9849 15.1666 58.3069 13.5343 58.3052 11.8316C58.3034 10.1289 58.9782 8.49528 60.181 7.29007C61.3837 6.08487 63.016 5.40683 64.7187 5.4051C65.7086 5.3977 66.6876 5.61149 67.5843 6.03086C68.4811 6.45024 69.2728 7.06461 69.9017 7.8291L67.7887 9.9291C67.4111 9.46675 66.9417 9.08777 66.4102 8.81615C65.8787 8.54453 65.2966 8.38618 64.7007 8.3511C64.2417 8.33968 63.7852 8.42131 63.3587 8.59109C62.9321 8.76088 62.5444 9.01528 62.2188 9.33897C61.8933 9.66267 61.6366 10.0489 61.4644 10.4745C61.2922 10.9001 61.2079 11.3561 61.2167 11.8151C61.2051 12.2752 61.2863 12.7328 61.4554 13.1609C61.6245 13.5889 61.878 13.9785 62.2009 14.3064C62.5238 14.6343 62.9094 14.8939 63.3348 15.0696C63.7601 15.2453 64.2165 15.3335 64.6767 15.3291C65.277 15.2979 65.8642 15.1412 66.4002 14.869C66.9362 14.5969 67.4092 14.2154 67.7887 13.7491L69.9187 15.8491C69.288 16.6111 68.4946 17.2222 67.5969 17.6375C66.6991 18.0528 65.7198 18.2618 64.7307 18.2491V18.2491L64.7317 18.2451ZM71.0197 17.9081V0.649102H74.0417V6.9901C74.4963 6.46746 75.0626 6.05373 75.6988 5.77955C76.3349 5.50536 77.0245 5.37773 77.7167 5.4061C80.8817 5.4061 82.7167 7.7591 82.7167 10.7681V17.9081H79.6887V11.2291C79.7341 10.8603 79.6984 10.4861 79.5841 10.1326C79.4699 9.77905 79.2797 9.45474 79.027 9.18235C78.7744 8.90995 78.4652 8.69604 78.1213 8.55557C77.7773 8.4151 77.4068 8.35146 77.0357 8.3691C76.6321 8.33701 76.2263 8.39317 75.8466 8.53369C75.4669 8.6742 75.1224 8.89569 74.8369 9.18279C74.5514 9.46988 74.3319 9.81568 74.1935 10.1962C74.0552 10.5766 74.0013 10.9827 74.0357 11.3861V17.9131H71.0197V17.9081Z" fill="#6A7A99"/>
</g>
<defs>
<clipPath id="clip0_319_18650">
<rect width="81.828" height="24.845" fill="white" transform="translate(0.888672 0.329102)"/>
</clipPath>
</defs>
</svg>
