<svg width="100" height="30" viewBox="0 0 100 30" fill="none" xmlns="http://www.w3.org/2000/svg">
<g id="Spotify-2-2" clip-path="url(#clip0_319_18652)">
<path id="Vector" d="M15.4728 0.329102C12.5544 0.329299 9.70154 1.19489 7.27506 2.81642C4.84858 4.43795 2.95742 6.74259 1.84073 9.43892C0.724033 12.1352 0.431958 15.1021 1.00143 17.9645C1.57091 20.8268 2.97636 23.456 5.04007 25.5195C7.10377 27.5831 9.73304 28.9884 12.5954 29.5576C15.4578 30.1269 18.4246 29.8346 21.1209 28.7178C23.8171 27.6009 26.1216 25.7096 27.743 23.283C29.3644 20.8564 30.2298 18.0035 30.2298 15.0851C30.2298 13.1472 29.8481 11.2283 29.1065 9.43799C28.3648 7.64765 27.2778 6.02091 25.9075 4.65068C24.5372 3.28045 22.9104 2.19355 21.12 1.45205C19.3296 0.710549 17.4106 0.32897 15.4728 0.329102V0.329102ZM22.2398 21.6111C22.1764 21.7139 22.0935 21.8032 21.9956 21.8739C21.8978 21.9446 21.7869 21.9954 21.6694 22.0232C21.552 22.0511 21.4301 22.0555 21.311 22.0363C21.1918 22.017 21.0775 21.9745 20.9748 21.9111C17.5098 19.7951 13.1488 19.3111 8.01178 20.4891C7.77388 20.5433 7.52418 20.5008 7.31761 20.371C7.11104 20.2411 6.96452 20.0345 6.91028 19.7966C6.85604 19.5587 6.89853 19.309 7.0284 19.1024C7.15827 18.8959 7.36488 18.7493 7.60278 18.6951C13.2238 17.4111 18.0458 17.9641 21.9348 20.3411C22.0386 20.4041 22.1288 20.4871 22.2004 20.5852C22.272 20.6832 22.3234 20.7945 22.3517 20.9126C22.3801 21.0306 22.3848 21.1532 22.3656 21.273C22.3464 21.3929 22.3036 21.5078 22.2398 21.6111ZM24.0458 17.5931C23.8863 17.8532 23.6301 18.0393 23.3334 18.1105C23.0368 18.1818 22.724 18.1324 22.4638 17.9731C17.9848 15.476 12.6984 14.8571 7.76378 16.2521C7.47204 16.3413 7.1568 16.311 6.8874 16.1679C6.61801 16.0247 6.41653 15.7803 6.32728 15.4886C6.23803 15.1969 6.26834 14.8816 6.41152 14.6122C6.5547 14.3428 6.79904 14.1413 7.09078 14.0521C9.84463 13.2593 12.7291 13.0243 15.5749 13.3609C18.4208 13.6974 21.1708 14.5988 23.6638 16.0121C23.7926 16.0911 23.9045 16.1946 23.9933 16.3169C24.082 16.4391 24.1458 16.5777 24.181 16.7246C24.2162 16.8715 24.2221 17.0239 24.1984 17.1731C24.1747 17.3223 24.1218 17.4654 24.0428 17.5941L24.0458 17.5931ZM24.2008 13.4091C19.4448 10.5841 11.6008 10.3241 7.05778 11.7031C6.88327 11.7596 6.69926 11.7807 6.51649 11.7652C6.33373 11.7498 6.15588 11.698 5.99334 11.613C5.83081 11.5281 5.68684 11.4115 5.56987 11.2702C5.4529 11.129 5.36527 10.9658 5.31209 10.7902C5.25892 10.6147 5.24127 10.4303 5.26018 10.2479C5.2791 10.0654 5.33419 9.88859 5.42224 9.72769C5.51029 9.56678 5.62953 9.42505 5.77299 9.31077C5.91646 9.19649 6.08127 9.11195 6.25778 9.0621C11.4698 7.4801 20.1348 7.7851 25.6108 11.0361C25.7667 11.1286 25.9028 11.2508 26.0114 11.3959C26.1201 11.5409 26.1991 11.706 26.2439 11.8816C26.2888 12.0572 26.2986 12.2399 26.2728 12.4193C26.2471 12.5987 26.1862 12.7712 26.0938 12.9271C26.0013 13.083 25.8791 13.2191 25.734 13.3278C25.5889 13.4364 25.4239 13.5154 25.2483 13.5602C25.0727 13.6051 24.89 13.6149 24.7106 13.5892C24.5312 13.5634 24.3587 13.5026 24.2028 13.4101L24.2008 13.4091ZM40.8638 13.9521C38.3158 13.3441 37.8638 12.9181 37.8638 12.0221C37.8638 11.1751 38.6638 10.6061 39.8458 10.6061C41.1205 10.6516 42.3445 11.1167 43.3278 11.9291C43.3457 11.9423 43.366 11.9518 43.3876 11.9571C43.4091 11.9624 43.4316 11.9633 43.4535 11.9599C43.4755 11.9564 43.4965 11.9487 43.5154 11.937C43.5344 11.9254 43.5508 11.9101 43.5638 11.8921L44.8078 10.1381C44.8324 10.1033 44.8428 10.0604 44.8369 10.0182C44.8309 9.97604 44.8091 9.93771 44.7758 9.9111C43.3972 8.78348 41.6635 8.18113 39.8828 8.2111C37.1318 8.2111 35.2098 9.8621 35.2098 12.2241C35.2098 14.7571 36.8678 15.6541 39.7328 16.3461C42.1698 16.9081 42.5818 17.3781 42.5818 18.2191C42.5818 19.1511 41.7498 19.7311 40.4108 19.7311C38.892 19.7194 37.4371 19.1185 36.3528 18.0551C36.3189 18.0263 36.2752 18.0116 36.2308 18.0141C36.2087 18.0156 36.1871 18.0215 36.1674 18.0314C36.1476 18.0414 36.1301 18.0552 36.1158 18.0721L34.7158 19.7321C34.6877 19.7654 34.6737 19.8084 34.6767 19.8518C34.6797 19.8953 34.6994 19.9359 34.7318 19.9651C36.2701 21.3589 38.274 22.1268 40.3498 22.1181C43.3138 22.1181 45.2288 20.4991 45.2288 17.9911C45.2338 15.8751 43.9668 14.7031 40.8638 13.9491H40.8588L40.8638 13.9521ZM51.9398 11.4391C51.3221 11.431 50.7109 11.5661 50.1541 11.8338C49.5974 12.1015 49.1102 12.4946 48.7308 12.9821V11.8141C48.7309 11.7922 48.7267 11.7705 48.7184 11.7503C48.7102 11.73 48.6979 11.7116 48.6825 11.6961C48.6671 11.6806 48.6487 11.6682 48.6285 11.6598C48.6083 11.6514 48.5867 11.6471 48.5648 11.6471H46.2838C46.2619 11.6471 46.2402 11.6514 46.22 11.6598C46.1998 11.6682 46.1815 11.6806 46.166 11.6961C46.1506 11.7116 46.1384 11.73 46.1301 11.7503C46.1218 11.7705 46.1176 11.7922 46.1178 11.8141V24.7831C46.1178 24.8272 46.1352 24.8695 46.1663 24.9008C46.1974 24.9321 46.2397 24.9498 46.2838 24.9501H48.5638C48.6079 24.9498 48.6501 24.9321 48.6812 24.9008C48.7123 24.8695 48.7298 24.8272 48.7298 24.7831V20.6901C49.1232 21.1554 49.6153 21.5271 50.1704 21.7783C50.7255 22.0294 51.3296 22.1537 51.9388 22.1421C54.3268 22.1421 56.7438 20.3041 56.7438 16.7911C56.7438 13.2781 54.3298 11.4381 51.9438 11.4381L51.9398 11.4391ZM54.0918 16.7911C54.1317 17.1699 54.0926 17.5528 53.9768 17.9156C53.861 18.2784 53.6712 18.6133 53.4192 18.8989C53.1673 19.1845 52.8587 19.4147 52.5132 19.5748C52.1676 19.7349 51.7926 19.8215 51.4118 19.8291C51.0301 19.8169 50.6548 19.7277 50.3084 19.5669C49.962 19.406 49.6517 19.1769 49.3961 18.8931C49.1405 18.6094 48.9449 18.277 48.8209 17.9157C48.6969 17.5545 48.6472 17.172 48.6748 16.7911C48.6471 16.4101 48.6967 16.0275 48.8206 15.6661C48.9445 15.3048 49.1401 14.9722 49.3957 14.6884C49.6514 14.4046 49.9617 14.1753 50.3082 14.0144C50.6546 13.8535 51.03 13.7643 51.4118 13.7521C51.791 13.7641 52.1638 13.8536 52.5072 14.0152C52.8505 14.1767 53.1572 14.4068 53.4083 14.6913C53.6593 14.9758 53.8495 15.3087 53.967 15.6695C54.0846 16.0303 54.127 16.4113 54.0918 16.7891V16.7911ZM62.9388 11.4391C61.8821 11.459 60.8549 11.7907 59.9861 12.3924C59.1174 12.9942 58.4457 13.8392 58.0556 14.8214C57.6655 15.8035 57.5742 16.8791 57.7933 17.913C58.0124 18.9468 58.5321 19.8929 59.287 20.6324C60.042 21.3719 60.9987 21.8719 62.0369 22.0695C63.075 22.2672 64.1485 22.1537 65.1224 21.7433C66.0963 21.3329 66.9272 20.6439 67.5108 19.7628C68.0945 18.8818 68.4048 17.8479 68.4028 16.7911C68.3992 16.0798 68.2545 15.3763 67.9773 14.7213C67.7 14.0663 67.2956 13.4727 66.7875 12.975C66.2794 12.4773 65.6776 12.0853 65.0169 11.8216C64.3563 11.558 63.65 11.428 62.9388 11.4391V11.4391ZM62.9388 19.8471C62.5471 19.8435 62.1602 19.7605 61.8014 19.6033C61.4426 19.446 61.1194 19.2177 60.8513 18.9321C60.5832 18.6465 60.3757 18.3096 60.2414 17.9416C60.1071 17.5736 60.0487 17.1823 60.0698 16.7911C60.0444 16.4038 60.0989 16.0155 60.2298 15.6502C60.3607 15.2848 60.5653 14.9502 60.8308 14.6672C61.0963 14.3841 61.4171 14.1586 61.7734 14.0047C62.1296 13.8507 62.5137 13.7715 62.9018 13.7721C63.2946 13.7748 63.6828 13.8571 64.043 14.0139C64.4031 14.1707 64.7278 14.3987 64.9975 14.6844C65.2672 14.97 65.4762 15.3073 65.612 15.6759C65.7479 16.0445 65.8076 16.4368 65.7878 16.8291C65.8122 17.2175 65.7565 17.6068 65.6242 17.9728C65.4918 18.3388 65.2857 18.6737 65.0185 18.9567C64.7514 19.2397 64.4289 19.4647 64.0712 19.6179C63.7134 19.7711 63.328 19.8491 62.9388 19.8471V19.8471ZM74.9688 11.6471H72.4578V9.0801C72.4579 9.05822 72.4537 9.03652 72.4454 9.01627C72.4372 8.99601 72.4249 8.97759 72.4095 8.96207C72.3941 8.94655 72.3757 8.93424 72.3555 8.92583C72.3353 8.91743 72.3137 8.9131 72.2918 8.9131H70.0108C69.9666 8.91336 69.9243 8.93104 69.893 8.9623C69.8617 8.99357 69.844 9.03589 69.8438 9.0801V11.6471H68.7438C68.7219 11.6471 68.7002 11.6514 68.68 11.6598C68.6598 11.6682 68.6415 11.6806 68.626 11.6961C68.6106 11.7116 68.5984 11.73 68.5901 11.7503C68.5819 11.7705 68.5776 11.7922 68.5778 11.8141V13.7751C68.5778 13.8192 68.5952 13.8615 68.6263 13.8928C68.6574 13.9241 68.6997 13.9418 68.7438 13.9421H69.8438V19.0161C69.8438 21.0651 70.8638 22.1051 72.8778 22.1051C73.6247 22.123 74.3625 21.9392 75.0138 21.5731C75.0396 21.559 75.0612 21.5382 75.0762 21.5128C75.0911 21.4875 75.0989 21.4585 75.0988 21.4291V19.5601C75.0987 19.5318 75.0914 19.504 75.0776 19.4793C75.0638 19.4547 75.0439 19.4339 75.0198 19.4191C74.9958 19.4038 74.9682 19.3951 74.9397 19.3939C74.9113 19.3926 74.883 19.3989 74.8578 19.4121C74.4441 19.6261 73.9846 19.7366 73.5188 19.7341C72.7878 19.7341 72.4598 19.4011 72.4598 18.6571V13.9431H74.9708C74.9927 13.9431 75.0143 13.9388 75.0345 13.9304C75.0547 13.922 75.0731 13.9096 75.0885 13.8941C75.1039 13.8786 75.1162 13.8602 75.1244 13.8399C75.1327 13.8197 75.1369 13.798 75.1368 13.7761V11.8161C75.1375 11.7942 75.1337 11.7725 75.1257 11.7521C75.1178 11.7317 75.1058 11.7132 75.0904 11.6976C75.0751 11.682 75.0568 11.6696 75.0366 11.6613C75.0164 11.653 74.9947 11.6488 74.9728 11.6491L74.9688 11.6471ZM83.7158 11.6571V11.3421C83.7158 10.4151 84.0718 10.0011 84.8678 10.0011C85.3068 10.0063 85.7417 10.0864 86.1538 10.2381C86.1789 10.2466 86.2057 10.2489 86.2318 10.2449C86.258 10.2409 86.2829 10.2307 86.3043 10.2151C86.3258 10.1996 86.3432 10.1791 86.3551 10.1554C86.367 10.1318 86.373 10.1056 86.3728 10.0791V8.1521C86.3732 8.11623 86.3619 8.08121 86.3406 8.05233C86.3193 8.02346 86.2892 8.00232 86.2548 7.9921C85.6392 7.80415 84.9983 7.7124 84.3548 7.7201C82.2488 7.7201 81.1338 8.9071 81.1338 11.1501V11.6331H80.0338C79.9896 11.6334 79.9472 11.651 79.916 11.6823C79.8847 11.7136 79.867 11.7559 79.8668 11.8001V13.7711C79.867 13.8153 79.8847 13.8576 79.916 13.8889C79.9472 13.9202 79.9896 13.9378 80.0338 13.9381H81.1338V21.7631C81.1338 21.8074 81.1514 21.8499 81.1827 21.8812C81.214 21.9125 81.2565 21.9301 81.3008 21.9301H83.5808C83.6027 21.9302 83.6245 21.926 83.6449 21.9177C83.6652 21.9093 83.6836 21.897 83.6992 21.8815C83.7147 21.8659 83.727 21.8475 83.7353 21.8272C83.7437 21.8068 83.7479 21.7851 83.7478 21.7631V13.9431H85.8778L89.1408 21.7671C88.7708 22.5881 88.4058 22.7521 87.9088 22.7521C87.4659 22.7411 87.0331 22.6179 86.6508 22.3941C86.6099 22.3737 86.5627 22.3694 86.5188 22.3821C86.4968 22.3893 86.4765 22.401 86.4593 22.4165C86.442 22.432 86.4282 22.451 86.4188 22.4721L85.6448 24.1721C85.6269 24.2106 85.6244 24.2545 85.6378 24.2949C85.6512 24.3352 85.6794 24.3689 85.7168 24.3891C86.4586 24.8097 87.2991 25.0251 88.1518 25.0131C89.8368 25.0131 90.7688 24.2271 91.5878 22.1131L95.5538 11.8851C95.5636 11.86 95.5673 11.8328 95.5643 11.806C95.5614 11.7792 95.552 11.7534 95.537 11.731C95.522 11.7086 95.5017 11.6902 95.478 11.6773C95.4543 11.6644 95.4278 11.6575 95.4008 11.6571H93.0248C92.9899 11.6568 92.9558 11.6675 92.9273 11.6876C92.8988 11.7077 92.8773 11.7362 92.8658 11.7691L90.4328 18.7181L87.7638 11.7651C87.7518 11.7337 87.7306 11.7066 87.7029 11.6875C87.6752 11.6684 87.6424 11.6581 87.6088 11.6581H83.7088L83.7158 11.6571ZM78.6448 11.6471H76.3638C76.3196 11.6474 76.2772 11.665 76.246 11.6963C76.2147 11.7276 76.197 11.7699 76.1968 11.8141V21.7661C76.1968 21.788 76.2011 21.8097 76.2095 21.83C76.2179 21.8503 76.2302 21.8687 76.2457 21.8842C76.2612 21.8997 76.2796 21.912 76.2999 21.9204C76.3201 21.9288 76.3419 21.9331 76.3638 21.9331H78.6458C78.6677 21.9331 78.6894 21.9288 78.7097 21.9204C78.73 21.912 78.7484 21.8997 78.7639 21.8842C78.7794 21.8687 78.7917 21.8503 78.8001 21.83C78.8085 21.8097 78.8128 21.788 78.8128 21.7661V11.8151C78.8128 11.7708 78.7952 11.7283 78.7639 11.697C78.7326 11.6657 78.6901 11.6481 78.6458 11.6481L78.6448 11.6471ZM77.5168 7.1151C77.1932 7.1149 76.8769 7.21066 76.6077 7.39026C76.3386 7.56986 76.1287 7.82524 76.0047 8.12411C75.8807 8.42297 75.8481 8.7519 75.911 9.06929C75.974 9.38668 76.1296 9.67828 76.3583 9.90722C76.5869 10.1362 76.8783 10.2922 77.1956 10.3555C77.5129 10.4188 77.8419 10.3866 78.1409 10.2629C78.4399 10.1393 78.6956 9.92977 78.8755 9.66084C79.0554 9.39192 79.1516 9.07567 79.1518 8.7521C79.1519 8.53726 79.1097 8.32449 79.0276 8.12596C78.9455 7.92742 78.8251 7.74699 78.6733 7.59498C78.5215 7.44297 78.3412 7.32236 78.1428 7.24002C77.9443 7.15768 77.7316 7.11523 77.5168 7.1151V7.1151ZM97.5028 14.8521C97.1847 14.8513 96.8741 14.7563 96.6099 14.5792C96.3458 14.402 96.1401 14.1506 96.0187 13.8566C95.8973 13.5626 95.8657 13.2393 95.9278 12.9274C95.99 12.6155 96.1432 12.329 96.368 12.104C96.5928 11.8791 96.8792 11.7257 97.1911 11.6634C97.503 11.601 97.8263 11.6324 98.1204 11.7536C98.4144 11.8748 98.666 12.0804 98.8433 12.3444C99.0206 12.6084 99.1158 12.9191 99.1168 13.2371C99.1188 13.4497 99.0784 13.6605 98.998 13.8573C98.9176 14.054 98.7988 14.2328 98.6486 14.3832C98.4983 14.5335 98.3196 14.6524 98.1229 14.733C97.9261 14.8135 97.7153 14.854 97.5028 14.8521V14.8521ZM97.5118 11.7921C97.2242 11.7893 96.9423 11.8721 96.7019 12.03C96.4615 12.1878 96.2735 12.4136 96.1617 12.6786C96.05 12.9436 96.0196 13.2358 96.0743 13.5181C96.1291 13.8005 96.2666 14.0601 96.4693 14.2641C96.672 14.4681 96.9308 14.6072 97.2128 14.6637C97.4948 14.7203 97.7872 14.6917 98.0529 14.5816C98.3186 14.4715 98.5455 14.2849 98.7048 14.0455C98.8642 13.8061 98.9488 13.5247 98.9478 13.2371C98.949 13.0478 98.9127 12.8601 98.8411 12.6848C98.7694 12.5095 98.6638 12.3502 98.5304 12.2159C98.3969 12.0816 98.2382 11.975 98.0634 11.9023C97.8886 11.8295 97.7011 11.7921 97.5118 11.7921V11.7921ZM97.8678 13.4021L98.3228 14.0381H97.9388L97.5298 13.4551H97.1788V14.0381H96.8578V12.3521H97.6088C98.0018 12.3521 98.2588 12.5521 98.2588 12.8901C98.2645 13.0076 98.2286 13.1233 98.1575 13.2169C98.0864 13.3106 97.9845 13.3761 97.8698 13.4021H97.8678ZM97.5968 12.6421H97.1788V13.1751H97.5968C97.8048 13.1751 97.9298 13.0751 97.9298 12.9081C97.9298 12.7411 97.8038 12.6371 97.5958 12.6371L97.5968 12.6421Z" fill="#6A7A99"/>
</g>
<defs>
<clipPath id="clip0_319_18652">
<rect width="98.4" height="29.512" fill="white" transform="translate(0.716797 0.329102)"/>
</clipPath>
</defs>
</svg>
