<svg width="80" height="80" viewBox="0 0 80 80" fill="none" xmlns="http://www.w3.org/2000/svg">
<g id="working-at-home 1" clip-path="url(#clip0_196_6029)">
<g id="XMLID_1413_">
<g id="XMLID_254_">
<path id="XMLID_255_" d="M39.025 28.8315C39.436 28.8315 39.8391 28.6645 40.1297 28.3737C40.4219 28.0831 40.5875 27.68 40.5875 27.269C40.5875 26.8581 40.4219 26.455 40.1297 26.1645C39.8391 25.8739 39.4375 25.7065 39.025 25.7065C38.6141 25.7065 38.211 25.8737 37.9203 26.1645C37.6297 26.455 37.4625 26.8581 37.4625 27.269C37.4625 27.68 37.6297 28.0831 37.9203 28.3737C38.211 28.6644 38.6141 28.8315 39.025 28.8315Z" fill="#1A064F"/>
<path id="XMLID_816_" d="M29.3375 28.8315C29.7485 28.8315 30.1516 28.6645 30.4422 28.3737C30.7344 28.0831 30.9 27.68 30.9 27.269C30.9 26.8581 30.7344 26.455 30.4422 26.1645C30.1516 25.8739 29.75 25.7065 29.3375 25.7065C28.9266 25.7065 28.5235 25.8737 28.2328 26.1645C27.9422 26.455 27.775 26.8581 27.775 27.269C27.775 27.68 27.9422 28.0831 28.2328 28.3737C28.5235 28.6644 28.9266 28.8315 29.3375 28.8315Z" fill="#1A064F"/>
<path id="XMLID_819_" d="M71.588 32.2177C70.725 32.2177 70.0255 32.9172 70.0255 33.7802C70.0255 34.643 70.725 35.3427 71.588 35.3427C74.5033 35.3427 76.875 37.7144 76.875 40.6297V64.088C76.875 67.0033 74.5033 69.375 71.588 69.375H34.9005C31.9852 69.375 29.6134 67.0033 29.6134 64.088V40.6297C29.6134 37.7144 31.9852 35.3427 34.9005 35.3427H57.5022C58.3652 35.3427 59.0647 34.643 59.0647 33.7802C59.0647 32.9172 58.3652 32.2177 57.5022 32.2177H47.752C47.9977 31.17 48.1248 30.0948 48.1248 29.0008V22.5053H50.1041C50.967 22.5053 51.6666 21.8056 51.6666 20.9428V15.5461C51.6667 6.97406 44.6927 0 36.1205 0C31.6981 0 27.8653 2.56531 26.027 6.285C20.9847 6.69187 17.005 10.9223 17.005 16.0677V20.4688C17.005 21.1506 17.4473 21.7541 18.0978 21.9589C18.7247 22.1566 19.3609 22.2955 19.9998 22.382V29.0009C19.9998 33.8234 22.4622 38.2761 26.4883 40.8509V41.9075H24.6397C11.0534 41.9073 0 52.9608 0 66.5472V70.625C0 75.7944 4.20563 80 9.375 80H67.2917C68.1547 80 68.8542 79.3003 68.8542 78.4375C68.8542 77.5747 68.1547 76.875 67.2917 76.875H65.75C66.8317 75.6633 67.6022 74.1655 67.9369 72.5H71.588C76.2264 72.5 80 68.7264 80 64.088V40.6297C80 35.9914 76.2264 32.2177 71.588 32.2177ZM47.1505 72.5V76.875H38.0509V75.9786C38.0509 74.7028 37.6862 73.5109 37.057 72.5H47.1505ZM36.1205 3.125C42.9695 3.125 48.5416 8.69703 48.5416 15.5461V19.3803H36.1205C31.6389 19.3803 27.9928 15.7342 27.9928 11.2525C27.9928 6.77109 31.6389 3.125 36.1205 3.125ZM20.1302 16.0677C20.1302 13.0144 22.1863 10.4339 24.9859 9.63344C24.9094 10.1625 24.8678 10.7027 24.8678 11.2527C24.8678 13.5752 25.5753 15.7355 26.7858 17.5297C24.9206 19.0169 22.4877 19.6486 20.1302 19.2433V16.0677ZM23.1248 29.0008V22.3745C25.2194 22.0841 27.2197 21.2223 28.8786 19.8561C30.8373 21.5073 33.3641 22.5053 36.1205 22.5053H44.9998V29.0008C44.9998 30.1034 44.8377 31.1812 44.5189 32.2177H34.9005C31.3875 32.2177 28.3722 34.383 27.115 37.4484C24.6153 35.3919 23.1248 32.3084 23.1248 29.0008ZM9.375 76.875C5.92875 76.875 3.125 74.0713 3.125 70.625V66.5472C3.125 54.6838 12.7766 45.0323 24.6398 45.0323H26.4884V64.088C26.4884 65.0647 26.6575 66.0022 26.965 66.875H15.7812C14.9183 66.875 14.2188 67.5747 14.2188 68.4375C14.2188 69.3003 14.9183 70 15.7812 70H26.4884V76.875H9.375ZM29.6134 76.875V72.5H31.4473C33.3655 72.5 34.9259 74.0605 34.9259 75.9786V76.875H29.6134ZM50.2755 72.5H56.213V76.875H50.2755V72.5ZM59.338 76.8472V72.5H64.7152C63.978 74.8698 61.8808 76.6125 59.338 76.8472Z" fill="#1A064F"/>
<path id="XMLID_829_" d="M53.2443 46.5386C50.0349 46.5386 47.4238 49.1497 47.4238 52.359C47.4238 55.5686 50.0349 58.1797 53.2443 58.1797C56.4537 58.1797 59.0648 55.5686 59.0648 52.359C59.0648 49.1497 56.4537 46.5386 53.2443 46.5386ZM53.2443 55.0547C51.7579 55.0547 50.5488 53.8454 50.5488 52.359C50.5488 50.8726 51.758 49.6636 53.2443 49.6636C54.7305 49.6636 55.9398 50.8726 55.9398 52.359C55.9398 53.8454 54.7305 55.0547 53.2443 55.0547Z" fill="#1A064F"/>
<path id="XMLID_830_" d="M64.5328 35.342C64.9453 35.342 65.3485 35.1764 65.6391 34.8858C65.9297 34.5936 66.0969 34.1922 66.0969 33.7795C66.0969 33.3686 65.9297 32.9672 65.6391 32.675C65.3469 32.3844 64.9453 32.2188 64.5328 32.2188C64.1219 32.2188 63.7188 32.3844 63.4281 32.675C63.1375 32.9672 62.9703 33.3686 62.9703 33.7795C62.9703 34.1922 63.1375 34.5936 63.4281 34.8858C63.7188 35.1766 64.1219 35.342 64.5328 35.342Z" fill="#1A064F"/>
</g>
</g>
</g>
<defs>
<clipPath id="clip0_196_6029">
<rect width="80" height="80" fill="white"/>
</clipPath>
</defs>
</svg>
