<svg width="80" height="80" viewBox="0 0 80 80" fill="none" xmlns="http://www.w3.org/2000/svg">
<g id="graduation 1">
<g id="Group">
<g id="Group_2">
<path id="Vector" d="M23.4476 14.4451C22.9937 13.7113 22.0309 13.4838 21.2968 13.938L21.2189 13.9863C20.485 14.4401 20.2579 15.403 20.7118 16.1371C21.0073 16.6151 21.5187 16.8779 22.0422 16.8779C22.3226 16.8779 22.6065 16.8026 22.8625 16.6441L22.9404 16.5958C23.6745 16.1421 23.9014 15.1791 23.4476 14.4451Z" fill="#1A064F"/>
</g>
</g>
<g id="Group_3">
<g id="Group_4">
<path id="Vector_2" d="M79.2588 26.6395L40.8213 2.88945C40.3178 2.57852 39.682 2.57852 39.1786 2.88945L26.273 10.8637C25.5389 11.3171 25.3114 12.2801 25.765 13.0143C26.2188 13.7485 27.1814 13.9755 27.9156 13.5221L40 6.05539L75.465 27.9687L40 49.882L20.8348 38.0401L37 28.4421C37.8136 29.1215 38.8597 29.5312 40 29.5312C42.5847 29.5312 44.6875 27.4284 44.6875 24.8437C44.6875 22.259 42.5847 20.1562 40 20.1562C37.4153 20.1562 35.3125 22.259 35.3125 24.8437C35.3125 25.156 35.3439 25.461 35.4023 25.7563L17.8353 36.1866L4.535 27.9687L16.8477 20.3609C17.5817 19.9074 17.8092 18.9446 17.3555 18.2102C16.902 17.4762 15.9392 17.249 15.205 17.7024L0.74125 26.6395C0.280469 26.924 0 27.4271 0 27.9687C0 28.5102 0.280469 29.0134 0.74125 29.2979L14.8036 37.9868L12.9911 39.063C10.1823 40.7307 8.4375 43.796 8.4375 47.0624V49.5304C6.66359 50.1718 5.39234 51.8724 5.39234 53.8649V56.5824C4.18656 57.773 3.4375 59.4254 3.4375 61.2499V75.7812C3.4375 76.644 4.13703 77.3437 5 77.3437H15C15.863 77.3437 16.5625 76.644 16.5625 75.7812V61.2499C16.5625 59.4254 15.8134 57.773 14.6077 56.5826V53.8651C14.6077 51.8727 13.3364 50.1721 11.5625 49.5305V47.0624C11.5625 44.8931 12.7212 42.8576 14.5866 41.7501L16.5625 40.5768V55.7274C16.5625 56.5902 17.262 57.2899 18.125 57.2899C25.9959 57.2899 33.3686 60.3852 38.8848 66.0056C39.1786 66.3049 39.5805 66.4735 40 66.4735C40.4195 66.4735 40.8212 66.3049 41.1152 66.0056C46.6316 60.3851 54.0042 57.2899 61.875 57.2899C62.738 57.2899 63.4375 56.5902 63.4375 55.7274V52.9687C63.4375 52.1059 62.738 51.4062 61.875 51.4062C61.012 51.4062 60.3125 52.1059 60.3125 52.9687V54.202C53.3944 54.5291 46.8875 57.0282 41.5625 61.3735V58.1141C41.5625 57.2513 40.863 56.5516 40 56.5516C39.137 56.5516 38.4375 57.2513 38.4375 58.1141V61.3735C33.1125 57.0282 26.6056 54.5291 19.6875 54.202V41.0046L39.1787 53.0479C39.4305 53.2034 39.7153 53.2812 40 53.2812C40.2847 53.2812 40.5697 53.2034 40.8213 53.0479L60.3125 41.0045V42.7604C60.3125 43.6232 61.012 44.3229 61.875 44.3229C62.738 44.3229 63.4375 43.6232 63.4375 42.7604V39.1185C63.4375 39.1038 63.4356 39.0896 63.4353 39.0749L79.2588 29.2977C79.7195 29.0132 80 28.5101 80 27.9685C80 27.427 79.7195 26.924 79.2588 26.6395ZM40 23.2812C40.8616 23.2812 41.5625 23.9821 41.5625 24.8437C41.5625 25.7052 40.8616 26.4062 40 26.4062C39.1384 26.4062 38.4375 25.7052 38.4375 24.8437C38.4375 23.9821 39.1384 23.2812 40 23.2812ZM8.51734 53.8649C8.51734 53.0474 9.1825 52.3823 10 52.3823C10.8175 52.3823 11.4827 53.0474 11.4827 53.8649V54.6874H8.51734V53.8649ZM13.4375 61.2499V74.2187H6.5625V61.2499C6.5625 59.3545 8.10453 57.8124 10 57.8124C11.8955 57.8124 13.4375 59.3545 13.4375 61.2499Z" fill="#1A064F"/>
</g>
</g>
<g id="Group_5">
<g id="Group_6">
<path id="Vector_3" d="M62.9797 46.4466C62.6891 46.156 62.2859 45.9888 61.875 45.9888C61.4641 45.9888 61.0609 46.1558 60.7703 46.4466C60.4797 46.7372 60.3125 47.1403 60.3125 47.5513C60.3125 47.9622 60.4797 48.3653 60.7703 48.6558C61.0609 48.948 61.4641 49.1138 61.875 49.1138C62.2859 49.1138 62.6891 48.948 62.9797 48.6558C63.2703 48.3653 63.4375 47.9622 63.4375 47.5513C63.4375 47.1403 63.2703 46.7372 62.9797 46.4466Z" fill="#1A064F"/>
</g>
</g>
</g>
</svg>
