<svg width="110" height="120" viewBox="0 0 110 120" fill="none" xmlns="http://www.w3.org/2000/svg">
<g id="icon">
<g id="Rectangle 8" opacity="0.15" filter="url(#filter0_d_28_458)">
<rect x="30" width="50" height="50" rx="25" fill="#E8543E"/>
</g>
<g id="svg">
<path id="Vector" d="M64 36.3714H46C45.318 36.3714 44.664 36.1005 44.1817 35.6183C43.6995 35.136 43.4286 34.482 43.4286 33.8V24.44C43.1488 24.0182 42.9997 23.5233 43 23.0171V20.8571C43 20.1752 43.2709 19.5211 43.7532 19.0389C44.2354 18.5566 44.8894 18.2857 45.5714 18.2857H49V16.5714C49 15.8894 49.2709 15.2354 49.7532 14.7532C50.2354 14.2709 50.8894 14 51.5714 14H58.4286C59.1106 14 59.7646 14.2709 60.2468 14.7532C60.7291 15.2354 61 15.8894 61 16.5714V18.2857H64.4286C65.1106 18.2857 65.7646 18.5566 66.2468 19.0389C66.7291 19.5211 67 20.1752 67 20.8571V23.0171C67.0003 23.5233 66.8512 24.0182 66.5714 24.44V33.8C66.5714 34.482 66.3005 35.136 65.8183 35.6183C65.336 36.1005 64.682 36.3714 64 36.3714ZM45.1429 25.5714V33.8C45.1429 34.0273 45.2332 34.2453 45.3939 34.4061C45.5547 34.5668 45.7727 34.6571 46 34.6571H64C64.2273 34.6571 64.4453 34.5668 64.6061 34.4061C64.7668 34.2453 64.8571 34.0273 64.8571 33.8V25.5714L57.5714 27.8171V28.5714C57.5714 29.2534 57.3005 29.9075 56.8183 30.3897C56.336 30.8719 55.682 31.1429 55 31.1429C54.318 31.1429 53.664 30.8719 53.1817 30.3897C52.6995 29.9075 52.4286 29.2534 52.4286 28.5714V27.8171L45.1429 25.5714ZM54.1429 27.2V28.5714C54.1429 28.7988 54.2332 29.0168 54.3939 29.1775C54.5547 29.3383 54.7727 29.4286 55 29.4286C55.2273 29.4286 55.4453 29.3383 55.6061 29.1775C55.7668 29.0168 55.8571 28.7988 55.8571 28.5714V26H54.1429V27.2ZM45.5714 20C45.3441 20 45.1261 20.0903 44.9653 20.2511C44.8046 20.4118 44.7143 20.6298 44.7143 20.8571V23.0171C44.7056 23.2062 44.7598 23.3928 44.8683 23.5479C44.9769 23.7029 45.1337 23.8177 45.3143 23.8743L52.4286 26V25.1429C52.4286 24.9155 52.5189 24.6975 52.6796 24.5368C52.8404 24.376 53.0584 24.2857 53.2857 24.2857H56.7143C56.9416 24.2857 57.1596 24.376 57.3204 24.5368C57.4811 24.6975 57.5714 24.9155 57.5714 25.1429V26L64.6857 23.8057C64.8663 23.7491 65.0231 23.6344 65.1317 23.4793C65.2402 23.3243 65.2944 23.1376 65.2857 22.9486V20.8571C65.2857 20.6298 65.1954 20.4118 65.0347 20.2511C64.8739 20.0903 64.6559 20 64.4286 20H45.5714ZM50.7143 18.2857H59.2857V16.5714C59.2857 16.3441 59.1954 16.1261 59.0347 15.9653C58.8739 15.8046 58.6559 15.7143 58.4286 15.7143H51.5714C51.3441 15.7143 51.1261 15.8046 50.9653 15.9653C50.8046 16.1261 50.7143 16.3441 50.7143 16.5714V18.2857Z" fill="#E8543E"/>
</g>
</g>
<defs>
<filter id="filter0_d_28_458" x="0" y="0" width="110" height="120" filterUnits="userSpaceOnUse" color-interpolation-filters="sRGB">
<feFlood flood-opacity="0" result="BackgroundImageFix"/>
<feColorMatrix in="SourceAlpha" type="matrix" values="0 0 0 0 0 0 0 0 0 0 0 0 0 0 0 0 0 0 127 0" result="hardAlpha"/>
<feOffset dy="40"/>
<feGaussianBlur stdDeviation="15"/>
<feColorMatrix type="matrix" values="0 0 0 0 0.0980392 0 0 0 0 0.0980392 0 0 0 0 0.180392 0 0 0 0.04 0"/>
<feBlend mode="multiply" in2="BackgroundImageFix" result="effect1_dropShadow_28_458"/>
<feBlend mode="normal" in="SourceGraphic" in2="effect1_dropShadow_28_458" result="shape"/>
</filter>
</defs>
</svg>
