<svg width="18" height="19" viewBox="0 0 18 19" fill="none" xmlns="http://www.w3.org/2000/svg">
<g id="basket">
<g id="Group">
<path id="Vector" d="M15.4977 18.4518C16.2094 18.4518 16.8947 18.1487 17.3692 17.6149C17.8437 17.0811 18.0677 16.3694 17.9821 15.6643L16.4334 2.21422C16.2885 0.955539 15.2209 0 13.949 0H4.05097C2.77911 0 1.71154 0.955539 1.56656 2.21422L0.0179318 15.6643C-0.0677372 16.3694 0.15632 17.0811 0.630795 17.6149C1.10527 18.1487 1.79062 18.4518 2.50233 18.4518H15.4977ZM1.32274 15.8158L2.87796 2.36578C2.94386 1.7661 3.45128 1.31799 4.05097 1.31799H13.949C14.5487 1.31799 15.0561 1.7661 15.122 2.36578L16.6773 15.8158C16.7168 16.1519 16.6114 16.4814 16.3807 16.7384C16.1567 16.9954 15.8403 17.1338 15.4977 17.1338H2.50233C2.15966 17.1338 1.84334 16.9954 1.61928 16.7384C1.38864 16.4814 1.2832 16.1519 1.32274 15.8158V15.8158Z" fill="white"/>
<path id="Vector_2" d="M9.00001 7.90791C11.1803 7.90791 12.954 6.1343 12.954 3.95396V3.29496C12.954 2.93107 12.6589 2.63597 12.295 2.63597C11.9311 2.63597 11.636 2.93107 11.636 3.29496V3.95396C11.636 5.40743 10.4535 6.58993 9.00001 6.58993C7.54653 6.58993 6.36404 5.40743 6.36404 3.95396V3.29496C6.36404 2.93107 6.06894 2.63597 5.70504 2.63597C5.34115 2.63597 5.04605 2.93107 5.04605 3.29496V3.95396C5.04605 6.1343 6.81966 7.90791 9.00001 7.90791Z" fill="white"/>
</g>
</g>
</svg>
