<svg width="60" height="60" viewBox="0 0 60 60" fill="none" xmlns="http://www.w3.org/2000/svg">
<g id="online-learning 1" clip-path="url(#clip0_319_19057)">
<path id="Vector" d="M23.399 18.5271C19.4847 18.5271 16.3115 21.7003 16.3115 25.6146V28.4201C16.3115 32.3344 19.4847 35.5076 23.399 35.5076C27.3133 35.5076 30.4865 32.3344 30.4865 28.4201V25.6146C30.4865 21.7002 27.3133 18.5271 23.399 18.5271Z" fill="#FFCDAC"/>
<path id="Vector_2" d="M31.1703 1.17297H18.5175C17.2215 1.17297 16.1709 2.22356 16.1709 3.51954V24.3782C16.1709 23.0822 17.2215 22.0316 18.5175 22.0316H31.1703V1.17297Z" fill="#FFEFD5"/>
<path id="Vector_3" d="M1.17188 1.17297H13.8247C15.1207 1.17297 16.1713 2.22356 16.1713 3.51954V24.3782C16.1713 23.0822 15.1207 22.0316 13.8247 22.0316H1.17188V1.17297Z" fill="white"/>
<path id="Vector_4" d="M28.9065 35.5075H17.9293C12.1695 35.5075 7.5 40.177 7.5 45.9368V58.827H39.3359V45.9368C39.3359 40.177 34.6664 35.5075 28.9065 35.5075Z" fill="#FFB954"/>
<path id="Vector_5" d="M54.8437 37.9684H29.5321C27.3317 37.9684 25.5479 39.7522 25.5479 41.9527V58.8271H58.8279V41.9527C58.8279 39.7523 57.0442 37.9684 54.8437 37.9684Z" fill="#C9F3FF"/>
<path id="Vector_6" d="M42.1884 51.3276C44.0005 51.3276 45.4695 49.8586 45.4695 48.0465C45.4695 46.2343 44.0005 44.7653 42.1884 44.7653C40.3762 44.7653 38.9072 46.2343 38.9072 48.0465C38.9072 49.8586 40.3762 51.3276 42.1884 51.3276Z" fill="#72D8FF"/>
<path id="Vector_7" d="M23.399 18.5271C19.4847 18.5271 16.3115 21.7003 16.3115 25.6146V28.4201C16.3115 32.3344 19.4847 35.5076 23.399 35.5076C27.3133 35.5076 30.4865 32.3344 30.4865 28.4201V25.6146C30.4865 21.7002 27.3133 18.5271 23.399 18.5271Z" fill="white"/>
<path id="Vector_8" d="M56.6022 7.50082H43.9444C42.7152 7.50082 41.7189 8.49727 41.7189 9.72633V21.3117L38.6553 24.3754L41.7189 27.439V28.7122C41.7189 29.9414 42.7154 30.9378 43.9444 30.9378H56.6022C57.8314 30.9378 58.8277 29.9413 58.8277 28.7122V9.72645C58.8277 8.49727 57.8314 7.50082 56.6022 7.50082Z" fill="#A0E557"/>
<path id="Vector_9" d="M42.1884 43.5932C39.733 43.5932 37.7354 45.5908 37.7354 48.0462C37.7354 50.5016 39.7329 52.4992 42.1884 52.4992C44.6437 52.4992 46.6414 50.5016 46.6414 48.0462C46.6414 45.5908 44.6437 43.5932 42.1884 43.5932ZM42.1884 50.1555C41.0253 50.1555 40.0791 49.2092 40.0791 48.0462C40.0791 46.8832 41.0254 45.937 42.1884 45.937C43.3514 45.937 44.2976 46.8832 44.2976 48.0462C44.2976 49.2092 43.3513 50.1555 42.1884 50.1555Z" fill="black"/>
<path id="Vector_10" d="M54.8441 36.7965H29.5325C26.6895 36.7965 24.3764 39.1095 24.3764 41.9527V57.6553H16.1715V51.3274C16.1715 50.6803 15.6468 50.1556 14.9996 50.1556C14.3525 50.1556 13.8278 50.6803 13.8278 51.3274V57.6553H8.67188V45.9369C8.67188 40.8323 12.8248 36.6795 17.9293 36.6795C18.5764 36.6795 19.1012 36.1547 19.1012 35.5076C19.1012 35.4945 19.0997 35.4817 19.0992 35.4686C20.3527 36.2362 21.8252 36.6795 23.3996 36.6795C27.9539 36.6795 31.659 32.9744 31.659 28.4201V25.6146C31.659 21.0604 27.9539 17.3554 23.3996 17.3554C18.8455 17.3554 15.1404 21.0605 15.1404 25.6146V28.4201C15.1404 30.7397 16.103 32.8377 17.6479 34.3392C11.3804 34.4894 6.32812 39.6341 6.32812 45.9369V58.8271C6.32812 59.4742 6.85289 59.999 7.5 59.999H58.8284C59.4755 59.999 60.0002 59.4742 60.0002 58.8271V41.9527C60.0002 39.1096 57.6872 36.7965 54.8441 36.7965ZM17.4839 28.42V25.6145C17.4839 22.3527 20.1376 19.699 23.3994 19.699C26.6612 19.699 29.315 22.3527 29.315 25.6145V28.42C29.315 31.6818 26.6613 34.3356 23.3994 34.3356C20.1375 34.3356 17.4839 31.682 17.4839 28.42ZM39.3359 57.6552H26.72V41.9527C26.72 40.4019 27.9818 39.1403 29.5324 39.1403H54.8441C56.3948 39.1403 57.6565 40.4021 57.6565 41.9527V52.9607H52.1781C51.531 52.9607 51.0062 53.4855 51.0062 54.1326C51.0062 54.7797 51.531 55.3044 52.1781 55.3044H57.6565V57.6555L39.3359 57.6552Z" fill="black"/>
<path id="Vector_11" d="M47.5215 52.9622C47.2132 52.9622 46.9108 53.0875 46.693 53.3055C46.475 53.5235 46.3496 53.8257 46.3496 54.1341C46.3496 54.4423 46.4749 54.7446 46.693 54.9625C46.9108 55.1804 47.2132 55.3059 47.5215 55.3059C47.8309 55.3059 48.132 55.1805 48.3499 54.9625C48.569 54.7446 48.6934 54.4423 48.6934 54.1341C48.6934 53.8257 48.569 53.5235 48.3499 53.3055C48.1319 53.0876 47.8307 52.9622 47.5215 52.9622Z" fill="black"/>
<path id="Vector_12" d="M56.603 6.3291H43.9454C42.0721 6.3291 40.548 7.85312 40.548 9.72648V20.8265L37.8276 23.5467C37.37 24.0044 37.37 24.7464 37.8276 25.2041L40.548 27.9244V28.7123C40.548 30.5855 42.0721 32.1096 43.9454 32.1096H56.6031C58.4763 32.1096 60.0004 30.5855 60.0004 28.7123V9.72648C60.0004 7.85312 58.4762 6.3291 56.603 6.3291ZM57.6568 28.7121C57.6568 29.2932 57.1841 29.7659 56.6031 29.7659H43.9454C43.3643 29.7659 42.8916 29.2932 42.8916 28.7121V27.4389C42.8916 27.1281 42.7681 26.83 42.5484 26.6103L40.3135 24.3754L42.5484 22.1405C42.7681 21.9208 42.8916 21.6226 42.8916 21.3119V9.72648C42.8916 9.14547 43.3643 8.67273 43.9454 8.67273H56.6031C57.1841 8.67273 57.6568 9.14547 57.6568 9.72648V28.7121Z" fill="black"/>
<path id="Vector_13" d="M31.1709 15.5865C30.8627 15.5865 30.5604 15.7119 30.3424 15.9298C30.1244 16.1478 29.999 16.4502 29.999 16.7584C29.999 17.0666 30.1243 17.3689 30.3424 17.5869C30.5605 17.8048 30.8627 17.9302 31.1709 17.9302C31.4791 17.9302 31.7814 17.8048 31.9993 17.5869C32.2173 17.3689 32.3428 17.0666 32.3428 16.7584C32.3428 16.4502 32.2174 16.1478 31.9993 15.9298C31.7814 15.7119 31.4791 15.5865 31.1709 15.5865Z" fill="black"/>
<path id="Vector_14" d="M12.3043 22.0316C12.3043 21.3844 11.7796 20.8598 11.1325 20.8598H2.34363V2.34485H13.8247C14.4725 2.34485 14.9995 2.87184 14.9995 3.51965V18.5275C14.9995 19.1747 15.5243 19.6994 16.1714 19.6994C16.8185 19.6994 17.3433 19.1747 17.3433 18.5275V3.51965C17.3433 2.87184 17.8703 2.34485 18.5181 2.34485H29.9992V12.7757C29.9992 13.4229 30.5239 13.9476 31.1711 13.9476C31.8182 13.9476 32.3429 13.4229 32.3429 12.7757V1.17297C32.3429 0.525747 31.8182 0.00109863 31.1711 0.00109863H18.518C17.617 0.00109863 16.7944 0.34188 16.1714 0.900747C15.5483 0.341763 14.7257 0.00109863 13.8248 0.00109863H1.17187C0.524766 0.00109863 0 0.525747 0 1.17297V22.0316C0 22.6789 0.524766 23.2035 1.17187 23.2035H11.1325C11.7796 23.2035 12.3043 22.6789 12.3043 22.0316Z" fill="black"/>
<path id="Vector_15" d="M53.3464 12.8913H47.4492C46.8021 12.8913 46.2773 13.4159 46.2773 14.0632C46.2773 14.7104 46.8021 15.2351 47.4492 15.2351H53.3464C53.9936 15.2351 54.5183 14.7104 54.5183 14.0632C54.5183 13.4159 53.9937 12.8913 53.3464 12.8913Z" fill="black"/>
<path id="Vector_16" d="M53.3464 18.0473H47.4492C46.8021 18.0473 46.2773 18.572 46.2773 19.2192C46.2773 19.8664 46.8021 20.3911 47.4492 20.3911H53.3464C53.9936 20.3911 54.5183 19.8664 54.5183 19.2192C54.5183 18.572 53.9937 18.0473 53.3464 18.0473Z" fill="black"/>
<path id="Vector_17" d="M53.3464 23.2034H47.4492C46.8021 23.2034 46.2773 23.728 46.2773 24.3753C46.2773 25.0225 46.8021 25.5471 47.4492 25.5471H53.3464C53.9936 25.5471 54.5183 25.0225 54.5183 24.3753C54.5183 23.728 53.9937 23.2034 53.3464 23.2034Z" fill="black"/>
<path id="Vector_18" d="M11.3837 5.27441H5.48633C4.83922 5.27441 4.31445 5.79906 4.31445 6.44629C4.31445 7.09352 4.83922 7.61817 5.48633 7.61817H11.3836C12.0307 7.61817 12.5554 7.09352 12.5554 6.44629C12.5554 5.79906 12.0309 5.27441 11.3837 5.27441Z" fill="black"/>
<path id="Vector_19" d="M11.3837 10.4305H5.48633C4.83922 10.4305 4.31445 10.9552 4.31445 11.6024C4.31445 12.2496 4.83922 12.7743 5.48633 12.7743H11.3836C12.0307 12.7743 12.5554 12.2496 12.5554 11.6024C12.5554 10.9552 12.0309 10.4305 11.3837 10.4305Z" fill="black"/>
<path id="Vector_20" d="M11.3837 15.5865H5.48633C4.83922 15.5865 4.31445 16.1111 4.31445 16.7584C4.31445 17.4056 4.83922 17.9302 5.48633 17.9302H11.3836C12.0307 17.9302 12.5554 17.4056 12.5554 16.7584C12.5554 16.1111 12.0309 15.5865 11.3837 15.5865Z" fill="black"/>
<path id="Vector_21" d="M26.3836 5.27441H20.4863C19.8392 5.27441 19.3145 5.79906 19.3145 6.44629C19.3145 7.09352 19.8392 7.61817 20.4863 7.61817H26.3836C27.0307 7.61817 27.5554 7.09352 27.5554 6.44629C27.5554 5.79906 27.0307 5.27441 26.3836 5.27441Z" fill="black"/>
<path id="Vector_22" d="M26.3836 10.4305H20.4863C19.8392 10.4305 19.3145 10.9552 19.3145 11.6024C19.3145 12.2496 19.8392 12.7743 20.4863 12.7743H26.3836C27.0307 12.7743 27.5554 12.2496 27.5554 11.6024C27.5554 10.9552 27.0307 10.4305 26.3836 10.4305Z" fill="black"/>
</g>
<defs>
<clipPath id="clip0_319_19057">
<rect width="60" height="60" fill="white"/>
</clipPath>
</defs>
</svg>
