<svg width="65" height="65" viewBox="0 0 65 65" fill="none" xmlns="http://www.w3.org/2000/svg">
<g id="certificate 1">
<g id="Group">
<path id="Vector" d="M55.3516 12.543V43.0625C55.3516 44.6875 54.0313 45.957 52.457 45.957H49.3594L51.0859 45.1953L50.832 43.0117L52.1523 41.2344L50.832 39.457L51.0859 37.2734L49.0547 36.4102L48.1914 34.3789L46.0078 34.6328L44.2305 33.3125L42.4531 34.6328L40.2695 34.3789L39.4062 36.4102L37.375 37.2734L37.6289 39.457L36.3086 41.2344L37.6289 43.0117L37.375 45.1953L39.1016 45.957H12.543C10.918 45.957 9.64844 44.6367 9.64844 43.0625V12.543C9.64844 10.918 10.9688 9.64844 12.543 9.64844H52.457C54.0313 9.64844 55.3516 10.9688 55.3516 12.543V12.543Z" fill="#FECD1A"/>
<path id="Vector_2" d="M47.5313 48.0389V55.3514L44.2305 53.6756L40.8789 55.3514V48.0389L42.4531 47.8866L44.2305 49.1561L46.0078 47.8866L47.5313 48.0389Z" fill="#9D0191"/>
<path id="Vector_3" d="M50.832 43.0118L51.0859 45.1954L49.3594 45.9571L49.0547 46.1095L48.1914 48.1407L47.5313 48.0392L46.0078 47.8868L44.2305 49.1563L42.4531 47.8868L40.2695 48.1407L39.3555 46.1095L39.1016 45.9571L37.375 45.1954L37.5781 43.0118L36.3086 41.2345L37.5781 39.4571L37.375 37.2735L39.3555 36.4102L40.2695 34.379L42.4531 34.6329L44.2305 33.3126L46.0078 34.6329L48.1914 34.379L49.0547 36.4102L51.0859 37.2735L50.832 39.4571L52.1523 41.2345L50.832 43.0118Z" fill="#FD3A69"/>
<path id="Vector_4" d="M44.2305 44.1289C45.8291 44.1289 47.125 42.833 47.125 41.2344C47.125 39.6358 45.8291 38.3398 44.2305 38.3398C42.6319 38.3398 41.3359 39.6358 41.3359 41.2344C41.3359 42.833 42.6319 44.1289 44.2305 44.1289Z" fill="#FFF8CD"/>
</g>
<path id="Vector_5" d="M52.457 8.73456H12.543C10.4609 8.73456 8.73438 10.4103 8.73438 12.5432V21.6838C8.73438 22.1916 9.14062 22.5978 9.64844 22.5978C10.1562 22.5978 10.5625 22.1916 10.5625 21.6838V12.5432C10.5625 11.426 11.4766 10.5119 12.5937 10.5119H52.5078C53.625 10.5119 54.5391 11.426 54.5391 12.5432V43.0627C54.5391 44.1799 53.625 45.0939 52.5078 45.0939H52L51.7969 43.2658L52.9141 41.7932C53.168 41.4885 53.168 41.0314 52.9141 40.7267L51.7969 39.2541L52 37.426C52.0508 37.0197 51.8477 36.6642 51.4922 36.5119L49.8164 35.7502L49.0039 34.0236C48.8516 33.6682 48.4961 33.465 48.0898 33.5158L46.2109 33.7189L44.7383 32.6017C44.4336 32.3478 43.9766 32.3478 43.6719 32.6017L42.1992 33.7189L40.3711 33.5158C39.9648 33.465 39.6094 33.6682 39.457 34.0236L38.6953 35.6994L37.0195 36.4611C36.6641 36.6135 36.4609 36.9689 36.5117 37.3752L36.7148 39.2033L35.5977 40.676C35.3437 40.9807 35.3437 41.4377 35.5977 41.7424L36.7148 43.215L36.5117 45.0432H12.543C11.4258 45.0432 10.5117 44.1291 10.5117 43.0119V37.5783C10.5117 37.0705 10.1055 36.6642 9.59766 36.6642C9.08984 36.6642 8.78516 37.0705 8.78516 37.5783V43.0627C8.78516 45.1447 10.4609 46.8713 12.5937 46.8713H38.7969L39.5078 48.4963C39.6094 48.7502 39.8125 48.9025 40.0664 49.0041V55.3517C40.0664 56.0119 40.7773 56.4181 41.3359 56.1642L44.2812 54.6916L47.2266 56.1642C47.8359 56.4689 48.4961 56.0119 48.4961 55.3517V48.9533C48.75 48.9025 48.9531 48.6994 49.0547 48.4455L49.7656 46.8205H52.5078C54.5898 46.8205 56.3164 45.1447 56.3164 43.0119V12.5432C56.2148 10.4611 54.5391 8.78534 52.457 8.73456V8.73456ZM38.2891 37.8322L39.7109 37.2228C39.9141 37.1213 40.0664 36.9689 40.168 36.7658L40.7773 35.3439L42.3008 35.4963C42.5039 35.4963 42.7578 35.4455 42.9102 35.3439L44.1797 34.4299L45.3984 35.3439C45.6016 35.4963 45.8047 35.5471 46.0078 35.4963L47.5312 35.3439L48.1406 36.7658C48.2422 36.9689 48.3945 37.1213 48.5977 37.2228L50.0195 37.8322L49.8672 39.3557C49.8672 39.5588 49.918 39.8127 50.0195 39.965L50.9336 41.1838L50.0195 42.4533C49.8672 42.6564 49.8164 42.8596 49.8672 43.0627L50.0195 44.5861L48.5977 45.1955C48.3945 45.2971 48.2422 45.4494 48.1406 45.6525L47.5312 47.0744L46.0078 46.9221C45.8047 46.8713 45.5508 46.9728 45.3984 47.0744L44.1797 47.9885L42.9102 47.0744C42.7578 46.9728 42.5039 46.8713 42.3008 46.9221L40.7773 47.0744L40.168 45.6525C40.0664 45.4494 39.9141 45.2971 39.7109 45.1955L38.3398 44.6877L38.4922 43.1642C38.4922 42.9611 38.4414 42.7072 38.3398 42.5549L37.4258 41.2853L38.3398 40.0666C38.4922 39.8635 38.543 39.6603 38.4922 39.4572C38.4414 39.0002 38.2891 37.8322 38.2891 37.8322V37.8322ZM46.668 53.9299L44.6367 52.9142C44.3828 52.8127 44.0781 52.8127 43.8242 52.9142L41.793 53.9299V48.8517L42.1992 48.801L43.6719 49.9182C43.9766 50.1721 44.4336 50.1721 44.7383 49.9182L46.2109 48.801L46.6172 48.8517L46.668 53.9299ZM8.78516 30.3166V29.6564C8.78516 29.1486 9.19141 28.7424 9.69922 28.7424C10.207 28.7424 10.6133 29.1486 10.6133 29.6564V30.3166C10.6133 30.8244 10.207 31.2307 9.69922 31.2307C9.19141 31.2307 8.78516 30.7736 8.78516 30.3166ZM17.418 37.5783C17.418 37.0705 17.8242 36.6642 18.332 36.6642H27.625C28.1328 36.6642 28.5391 37.0705 28.5391 37.5783C28.5391 38.0861 28.1328 38.4924 27.625 38.4924H18.2812C17.8242 38.4924 17.418 38.0861 17.418 37.5783V37.5783ZM17.418 29.0978C17.418 28.59 17.8242 28.1838 18.332 28.1838H46.5664C47.0742 28.1838 47.4805 28.59 47.4805 29.0978C47.4805 29.6057 47.0742 30.0119 46.5664 30.0119H18.2812C17.8242 30.0119 17.418 29.6057 17.418 29.0978ZM18.2812 21.7853H46.5156C47.0234 21.7853 47.4297 22.1916 47.4297 22.6994C47.4297 23.2072 47.0234 23.6135 46.5156 23.6135H18.2812C17.7734 23.6135 17.3672 23.2072 17.3672 22.6994C17.3672 22.1916 17.8242 21.7853 18.2812 21.7853V21.7853ZM44.2305 45.0432C46.3125 45.0432 48.0391 43.3674 48.0391 41.2346C48.0391 39.1017 46.3633 37.426 44.2305 37.426C42.0977 37.426 40.4219 39.1017 40.4219 41.2346C40.4219 43.3166 42.1484 45.0432 44.2305 45.0432ZM44.2305 39.2541C45.3477 39.2541 46.2617 40.1682 46.2617 41.2853C46.2617 42.4025 45.3477 43.3166 44.2305 43.3166C43.1133 43.3166 42.1992 42.4025 42.1992 41.2853C42.1992 40.1682 43.1133 39.2541 44.2305 39.2541ZM37.4258 16.8596C36.918 16.8596 36.5117 16.4533 36.5117 15.9455C36.5117 15.4377 36.918 15.0314 37.4258 15.0314H46.7188C47.2266 15.0314 47.6328 15.4377 47.6328 15.9455C47.6328 16.4533 47.2266 16.8596 46.7188 16.8596H37.4258Z" fill="#03036B"/>
</g>
</svg>
