<svg width="60" height="60" viewBox="0 0 60 60" fill="none" xmlns="http://www.w3.org/2000/svg">
<g id="rating 1" clip-path="url(#clip0_319_18982)">
<g id="Group">
<g id="Group_2">
<path id="Vector" d="M19.6883 37.9935C20.525 32.8319 17.019 27.9693 11.8574 27.1326C6.69581 26.2958 1.83321 29.8018 0.996483 34.9634C0.159751 40.125 3.66574 44.9876 8.82733 45.8244C13.9889 46.6611 18.8515 43.1551 19.6883 37.9935Z" fill="#E1D3CE"/>
<path id="Vector_2" d="M15.8301 43.9742C14.9882 41.7657 12.852 40.1961 10.3478 40.1961C7.83262 40.1961 5.68855 41.7796 4.85441 44.0035C4.83555 44.0538 4.81738 44.1045 4.7998 44.1554C6.35922 45.2851 8.275 45.9529 10.3478 45.9529C12.4206 45.9529 14.3364 45.2851 15.8958 44.1554C15.8748 44.0945 15.853 44.0342 15.8301 43.9742Z" fill="#FFE177"/>
<path id="Vector_3" d="M10.3472 37.2269C11.9451 37.2269 13.2404 35.669 13.2404 33.7472C13.2404 31.8255 11.9451 30.2676 10.3472 30.2676C8.7494 30.2676 7.4541 31.8255 7.4541 33.7472C7.4541 35.669 8.7494 37.2269 10.3472 37.2269Z" fill="#FAF7F7"/>
<path id="Vector_4" d="M59.0052 37.9384C59.821 32.7716 56.2939 27.9217 51.127 27.1059C45.9602 26.2901 41.1104 29.8173 40.2945 34.9841C39.4787 40.1509 43.0059 45.0008 48.1727 45.8166C53.3395 46.6324 58.1894 43.1052 59.0052 37.9384Z" fill="#E1D3CE"/>
<path id="Vector_5" d="M41.4228 31.8016C40.635 33.183 40.1826 34.7804 40.1826 36.4844C40.1826 40.6817 42.9146 44.2388 46.6965 45.4805C46.8242 44.7086 46.8917 43.9164 46.8917 43.1084C46.8917 38.5261 44.7545 34.4434 41.4228 31.8016V31.8016Z" fill="#CDBFBA"/>
<path id="Vector_6" d="M55.1338 43.9742C54.2919 41.7657 52.1557 40.1961 49.6515 40.1961C47.1363 40.1961 44.9923 41.7796 44.1581 44.0035C44.1393 44.0538 44.1211 44.1045 44.1035 44.1554C45.6628 45.2851 47.5787 45.9529 49.6515 45.9529C51.7243 45.9529 53.6401 45.2851 55.1995 44.1554C55.1785 44.0945 55.1566 44.0342 55.1338 43.9742V43.9742Z" fill="#FD8087"/>
<path id="Vector_7" d="M44.1581 44.0039C44.1393 44.0541 44.1211 44.1048 44.1035 44.1557C44.8863 44.7228 45.759 45.1734 46.6963 45.4816C46.8241 44.7094 46.8918 43.9168 46.8918 43.1083C46.8918 42.3829 46.8376 41.6703 46.7343 40.9736C45.5593 41.6492 44.64 42.7193 44.1581 44.0039Z" fill="#FE646F"/>
<path id="Vector_8" d="M56.64 2.46939H3.61039C2.71613 2.46939 1.99121 3.19431 1.99121 4.08857V16.857C1.99121 17.7512 2.71613 18.4761 3.61039 18.4761H24.9634C25.4434 18.4761 25.8868 18.7322 26.1268 19.1479L29.2859 24.6196C29.6589 25.2656 30.5915 25.2656 30.9645 24.6196L34.1237 19.1479C34.3637 18.7322 34.8072 18.4761 35.2871 18.4761H56.6401C57.5343 18.4761 58.2591 17.7512 58.2591 16.8571V4.08857C58.259 3.19431 57.5341 2.46939 56.64 2.46939V2.46939Z" fill="#FFE177"/>
<path id="Vector_9" d="M56.6406 2.46939H54.7441V14.5131C54.7441 15.4074 54.0192 16.1322 53.1251 16.1322H31.772C31.292 16.1322 30.8486 16.3882 30.6086 16.8039L27.6914 21.8567L29.2866 24.6195C29.6596 25.2655 30.5921 25.2655 30.9652 24.6195L34.1243 19.1478C34.3643 18.7321 34.8079 18.476 35.2877 18.476H56.6407C57.535 18.476 58.2598 17.7511 58.2598 16.857V4.08857C58.2596 3.19431 57.5347 2.46939 56.6406 2.46939V2.46939Z" fill="#FFD15B"/>
<path id="Vector_10" d="M49.6519 37.2269C51.2497 37.2269 52.545 35.669 52.545 33.7472C52.545 31.8255 51.2497 30.2676 49.6519 30.2676C48.0541 30.2676 46.7588 31.8255 46.7588 33.7472C46.7588 35.669 48.0541 37.2269 49.6519 37.2269Z" fill="#FAF7F7"/>
<path id="Vector_11" d="M40.3145 53.3036C45.9461 47.672 45.9461 38.5414 40.3145 32.9097C34.6829 27.2781 25.5522 27.2781 19.9206 32.9097C14.289 38.5414 14.289 47.672 19.9206 53.3036C25.5522 58.9353 34.6829 58.9353 40.3145 53.3036Z" fill="#F3EAE6"/>
<path id="Vector_12" d="M30.125 28.6853C29.5299 28.6853 28.9434 28.7221 28.3672 28.7922C35.5036 29.6594 41.0322 35.7379 41.0322 43.1083C41.0322 50.4787 35.5036 56.5571 28.3672 57.4244C28.9434 57.4944 29.5299 57.5313 30.125 57.5313C38.0906 57.5313 44.5478 51.0739 44.5478 43.1084C44.5478 35.1427 38.0906 28.6853 30.125 28.6853Z" fill="#E1D3CE"/>
<path id="Vector_13" d="M38.476 54.5172C37.1936 51.1532 33.9398 48.7625 30.1254 48.7625C26.2942 48.7625 23.0286 51.1744 21.758 54.5618C21.7293 54.6385 21.7015 54.7156 21.6748 54.7933C24.05 56.5139 26.968 57.5312 30.1253 57.5312C33.2826 57.5312 36.2007 56.5139 38.5758 54.7933C38.5441 54.7006 38.5108 54.6085 38.476 54.5172V54.5172Z" fill="#62DBFB"/>
<path id="Vector_14" d="M28.3672 57.4244C30.0965 57.6325 31.8689 57.5339 33.56 57.1185C35.3945 56.6692 37.0911 55.8686 38.5755 54.7931C38.3082 54.0137 37.9284 53.2728 37.4635 52.6046C35.1833 55.2085 31.9818 56.9851 28.3672 57.4244V57.4244Z" fill="#01D0FB"/>
<g id="Group_3">
<path id="Vector_15" d="M30.1256 44.239C32.5594 44.239 34.5324 41.8661 34.5324 38.9389C34.5324 36.0118 32.5594 33.6389 30.1256 33.6389C27.6918 33.6389 25.7188 36.0118 25.7188 38.9389C25.7188 41.8661 27.6918 44.239 30.1256 44.239Z" fill="#FAF7F7"/>
<path id="Vector_16" d="M12.0384 6.29475L12.9173 8.07565C12.9915 8.226 13.1348 8.33006 13.3007 8.3542L15.2661 8.63979C15.6838 8.70049 15.8505 9.21377 15.5483 9.50838L14.1262 10.8946C14.0062 11.0115 13.9514 11.1802 13.9797 11.3453L14.3155 13.3027C14.3868 13.7187 13.9502 14.0359 13.5766 13.8395L11.8188 12.9154C11.6704 12.8373 11.4932 12.8373 11.3449 12.9154L9.58707 13.8395C9.21348 14.0359 8.77684 13.7187 8.8482 13.3027L9.18395 11.3453C9.21231 11.1801 9.15746 11.0115 9.03746 10.8946L7.61527 9.50838C7.31305 9.21377 7.47981 8.70049 7.89746 8.63979L9.86281 8.3542C10.0286 8.33006 10.1721 8.22588 10.2463 8.07565L11.1252 6.29475C11.312 5.91624 11.8516 5.91624 12.0384 6.29475V6.29475Z" fill="#FAF7F7"/>
<path id="Vector_17" d="M24.4006 6.29475L25.2795 8.07565C25.3537 8.226 25.4971 8.33006 25.6629 8.3542L27.6283 8.63979C28.0459 8.70049 28.2127 9.21377 27.9105 9.50838L26.4884 10.8946C26.3684 11.0115 26.3137 11.1802 26.3419 11.3453L26.6776 13.3027C26.749 13.7187 26.3124 14.0359 25.9388 13.8395L24.181 12.9154C24.0326 12.8373 23.8554 12.8373 23.7071 12.9154L21.9493 13.8395C21.5757 14.0359 21.139 13.7187 21.2104 13.3027L21.5461 11.3453C21.5745 11.1801 21.5196 11.0115 21.3996 10.8946L19.9776 9.50838C19.6754 9.21377 19.8421 8.70049 20.2598 8.63979L22.2251 8.3542C22.3909 8.33006 22.5344 8.22588 22.6086 8.07565L23.4875 6.29475C23.6741 5.91624 24.2138 5.91624 24.4006 6.29475V6.29475Z" fill="#FAF7F7"/>
<path id="Vector_18" d="M36.7629 6.29475L37.6418 8.07565C37.716 8.226 37.8593 8.33006 38.0252 8.3542L39.9906 8.63979C40.4082 8.70049 40.575 9.21377 40.2728 9.50838L38.8507 10.8946C38.7307 11.0115 38.6759 11.1802 38.7042 11.3453L39.04 13.3027C39.1113 13.7187 38.6747 14.0359 38.3011 13.8395L36.5433 12.9154C36.3949 12.8373 36.2177 12.8373 36.0694 12.9154L34.3116 13.8395C33.938 14.0359 33.5013 13.7187 33.5727 13.3027L33.9084 11.3453C33.9368 11.1801 33.8821 11.0115 33.762 10.8946L32.3399 9.50838C32.0377 9.21377 32.2044 8.70049 32.6221 8.63979L34.5874 8.3542C34.7532 8.33006 34.8967 8.22588 34.9709 8.07565L35.8498 6.29475C36.0364 5.91624 36.5761 5.91624 36.7629 6.29475V6.29475Z" fill="#FAF7F7"/>
<path id="Vector_19" d="M49.1252 6.29475L50.0041 8.07565C50.0783 8.226 50.2217 8.33006 50.3875 8.3542L52.3529 8.63979C52.7706 8.70049 52.9373 9.21377 52.6351 9.50838L51.213 10.8946C51.093 11.0115 51.0383 11.1802 51.0665 11.3453L51.4023 13.3027C51.4736 13.7187 51.037 14.0359 50.6634 13.8395L48.9056 12.9154C48.7572 12.8373 48.58 12.8373 48.4317 12.9154L46.6739 13.8395C46.3003 14.0359 45.8636 13.7187 45.935 13.3027L46.2707 11.3453C46.2991 11.1801 46.2444 11.0115 46.1243 10.8946L44.7022 9.50838C44.4 9.21377 44.5667 8.70049 44.9844 8.63979L46.9497 8.3542C47.1155 8.33006 47.259 8.22588 47.3332 8.07565L48.2121 6.29475C48.3988 5.91624 48.9384 5.91624 49.1252 6.29475V6.29475Z" fill="#FAF7F7"/>
</g>
</g>
<g id="Group_4">
<path id="Vector_20" d="M10.3472 38.1058C12.4272 38.1058 14.1193 36.1505 14.1193 33.7472C14.1193 31.3439 12.4272 29.3888 10.3472 29.3888C8.26727 29.3888 6.5752 31.3441 6.5752 33.7472C6.5752 36.1506 8.26738 38.1058 10.3472 38.1058ZM10.3472 31.1466C11.4579 31.1466 12.3614 32.3133 12.3614 33.7472C12.3614 35.1812 11.4578 36.348 10.3472 36.348C9.23652 36.348 8.33301 35.1812 8.33301 33.7472C8.33301 32.3132 9.23664 31.1466 10.3472 31.1466Z" fill="black"/>
<path id="Vector_21" d="M49.6519 29.3888C47.572 29.3888 45.8799 31.3441 45.8799 33.7472C45.8799 36.1505 47.572 38.1058 49.6519 38.1058C51.7319 38.1058 53.4241 36.1505 53.4241 33.7472C53.4241 31.3439 51.7319 29.3888 49.6519 29.3888V29.3888ZM49.6519 36.348C48.5413 36.348 47.6377 35.1812 47.6377 33.7472C47.6377 32.3132 48.5413 31.1466 49.6519 31.1466C50.7626 31.1466 51.6662 32.3133 51.6662 33.7472C51.6662 35.1814 50.7626 36.348 49.6519 36.348Z" fill="black"/>
<path id="Vector_22" d="M49.7333 26.1347C49.7061 26.1344 49.6793 26.1343 49.652 26.1343C45.7309 26.1343 42.1696 28.3603 40.4229 31.7992C37.7025 29.3201 34.0876 27.8065 30.1259 27.8065C26.0788 27.8065 22.3942 29.3865 19.6548 31.9612C17.9386 28.4411 14.3156 26.1364 10.3479 26.1364C4.64203 26.1364 0 30.7784 0 36.4843C0 42.1902 4.64203 46.8322 10.3478 46.8322C11.9919 46.8322 13.5969 46.4443 15.0455 45.7053C16.2824 52.9101 22.5735 58.4102 30.1257 58.4102C37.6385 58.4102 43.9041 52.9679 45.1871 45.8186C46.5497 46.4702 48.047 46.8178 49.571 46.8299C49.5989 46.8301 49.6267 46.8302 49.6545 46.8302C52.3874 46.8302 54.9616 45.7761 56.9115 43.8566C58.8813 41.9175 59.9781 39.3275 59.9998 36.5635C60.0444 30.8578 55.4389 26.1794 49.7333 26.1347V26.1347ZM1.75781 36.4843C1.75781 31.7478 5.61129 27.8943 10.3478 27.8943C13.8701 27.8943 17.0652 30.0818 18.3471 33.3514C16.5452 35.523 15.3311 38.1988 14.9512 41.1327C13.7217 39.9832 12.0871 39.3174 10.3478 39.3174C7.90887 39.3174 5.65992 40.6615 4.47609 42.7459C2.80488 41.1775 1.75781 38.9515 1.75781 36.4843V36.4843ZM5.8916 43.8255C6.73031 42.1623 8.46199 41.0752 10.3479 41.0752C12.1929 41.0752 13.8795 42.088 14.7497 43.7182C14.7693 43.7547 14.7918 43.7887 14.8154 43.8213C13.4722 44.6409 11.9323 45.0744 10.3479 45.0744C8.71734 45.0743 7.19156 44.6176 5.8916 43.8255V43.8255ZM22.749 54.4616C24.0244 51.5628 26.9389 49.6412 30.1257 49.6412C33.3168 49.6412 36.2268 51.5615 37.5022 54.4617C35.3784 55.8463 32.8446 56.6523 30.1257 56.6523C27.4068 56.6523 24.8729 55.8463 22.749 54.4616V54.4616ZM38.9388 53.3841C37.3059 50.0598 33.8752 47.8835 30.1259 47.8835C26.3814 47.8835 22.9459 50.0614 21.3128 53.3841C18.4185 50.8982 16.5819 47.214 16.5819 43.1083C16.5819 35.6401 22.6577 29.5644 30.1259 29.5644C37.5941 29.5644 43.6698 35.6402 43.6698 43.1083C43.6697 47.2139 41.8331 50.8982 38.9388 53.3841ZM49.5848 45.0719C48.1136 45.0603 46.6732 44.6723 45.4042 43.9491C45.4146 43.7572 45.4209 43.5643 45.4242 43.3706C45.4242 43.3706 46.9774 41.0752 49.6521 41.0752C51.5411 41.0752 53.2709 42.1622 54.1092 43.8269C52.759 44.6502 51.2041 45.0861 49.5848 45.0719V45.0719ZM55.6784 42.6037C55.6283 42.6531 55.5762 42.6995 55.5252 42.7474C54.342 40.6612 52.095 39.3174 49.6521 39.3174C48.0286 39.3174 46.4808 39.9051 45.2728 40.937C44.8521 37.9886 43.5885 35.3084 41.7336 33.1496C43.0673 29.9817 46.1902 27.8922 49.652 27.8922C49.6744 27.8922 49.6971 27.8922 49.7195 27.8925C54.456 27.9296 58.2791 31.8131 58.242 36.5496C58.2239 38.844 57.3135 40.994 55.6784 42.6037V42.6037Z" fill="black"/>
<path id="Vector_23" d="M30.1256 32.7605C27.211 32.7605 24.8398 35.5324 24.8398 38.9395C24.8398 42.3466 27.211 45.1184 30.1256 45.1184C33.0401 45.1184 35.4113 42.3466 35.4113 38.9395C35.4113 35.5325 33.0401 32.7605 30.1256 32.7605ZM30.1256 43.3606C28.1803 43.3606 26.5977 41.3773 26.5977 38.9395C26.5977 36.5016 28.1803 34.5183 30.1256 34.5183C32.0709 34.5183 33.6535 36.5016 33.6535 38.9395C33.6535 41.3773 32.0709 43.3606 30.1256 43.3606Z" fill="black"/>
<path id="Vector_24" d="M8.28418 11.3883L7.98137 13.1541C7.89137 13.6787 8.10301 14.1989 8.53356 14.5118C8.77696 14.6885 9.0616 14.7784 9.34813 14.7784C9.56879 14.7784 9.79051 14.7251 9.99536 14.6174L11.5811 13.7837L13.1669 14.6174C13.6379 14.8651 14.1982 14.8246 14.6288 14.5118C15.0595 14.199 15.2711 13.6787 15.1811 13.1541L14.8783 11.3883L16.1613 10.1378C16.5425 9.76629 16.677 9.22101 16.5125 8.71476C16.3481 8.20863 15.9187 7.84664 15.392 7.77L13.619 7.5123L12.8261 5.90578C12.5906 5.42847 12.1135 5.13199 11.5813 5.13199C11.049 5.13199 10.572 5.42859 10.3365 5.90578L9.5436 7.5123L7.77055 7.77C7.24391 7.84652 6.81453 8.20851 6.65 8.71476C6.48559 9.2209 6.62012 9.76617 7.00133 10.1378L8.28418 11.3883ZM9.98856 9.22406C10.4409 9.15843 10.8317 8.87449 11.0339 8.46468L11.5813 7.3555L12.1286 8.46457C12.3309 8.87437 12.7216 9.15832 13.1738 9.22394L14.3979 9.40183L13.5119 10.2653C13.1849 10.5843 13.0357 11.0435 13.1129 11.4939L13.322 12.7128L12.2272 12.1373C11.8227 11.9246 11.3397 11.9246 10.9353 12.1372L9.84043 12.7128L10.0495 11.4941C10.1268 11.0437 9.97778 10.5844 9.65036 10.2652L8.76465 9.40183L9.98856 9.22406Z" fill="black"/>
<path id="Vector_25" d="M28.8756 8.71476C28.7112 8.20862 28.2818 7.84663 27.7551 7.76999L25.9821 7.5123L25.1892 5.90577C24.9537 5.42847 24.4767 5.13187 23.9445 5.13187C23.4122 5.13187 22.9353 5.42835 22.6997 5.90566L21.9068 7.51218L20.1339 7.76987C19.6071 7.8464 19.1778 8.20839 19.0133 8.71464C18.8488 9.22089 18.9835 9.76616 19.3645 10.1376L20.6474 11.3882L20.3446 13.1539C20.2546 13.6786 20.4662 14.1988 20.8968 14.5117C21.1402 14.6884 21.4248 14.7783 21.7113 14.7783C21.932 14.7783 22.1537 14.725 22.3586 14.6173L23.9444 13.7836L25.5301 14.6173C26.0012 14.865 26.5614 14.8244 26.992 14.5117C27.4226 14.1988 27.6342 13.6786 27.5442 13.1539L27.2413 11.3882L28.5243 10.1376C28.9056 9.76628 29.0401 9.22101 28.8756 8.71476V8.71476ZM25.8751 10.2654C25.5481 10.5844 25.3989 11.0436 25.4761 11.494L25.6852 12.713L24.5904 12.1375C24.3881 12.031 24.1662 11.978 23.9444 11.978C23.7225 11.978 23.5006 12.0312 23.2984 12.1375L22.2035 12.7131L22.4126 11.494C22.4898 11.0436 22.3406 10.5844 22.0133 10.2653L21.1276 9.40194L22.3515 9.22405C22.8039 9.15843 23.1946 8.87448 23.3969 8.46468L23.9442 7.3555L24.4916 8.4648C24.694 8.8746 25.0847 9.15843 25.5368 9.22405L26.7608 9.40194L25.8751 10.2654Z" fill="black"/>
<path id="Vector_26" d="M41.238 8.71479C41.0736 8.20854 40.6442 7.84655 40.1174 7.77003L38.3445 7.51233L37.5516 5.90581C37.3161 5.42862 36.839 5.13202 36.3068 5.13202C35.7747 5.13202 35.2977 5.4285 35.0621 5.90581L34.2692 7.51233L32.4961 7.77003C31.9695 7.84655 31.5401 8.20854 31.3756 8.71479C31.2112 9.22093 31.3457 9.7662 31.7269 10.1378L33.0099 11.3883L32.707 13.1541C32.617 13.6787 32.8286 14.1989 33.2591 14.5118C33.5025 14.6885 33.7871 14.7784 34.0737 14.7784C34.2943 14.7783 34.5161 14.7251 34.7209 14.6174L36.3067 13.7837L37.8925 14.6174C38.3636 14.8651 38.9238 14.8246 39.3544 14.5118C39.785 14.1991 39.9966 13.6787 39.9066 13.1541L39.6037 11.3883L40.8866 10.1378C41.2679 9.7662 41.4025 9.22093 41.238 8.71479V8.71479ZM38.2377 10.2652C37.9104 10.5842 37.7613 11.0434 37.8385 11.4939L38.0475 12.7129L36.9528 12.1373C36.7505 12.031 36.5287 11.9778 36.3068 11.9778C36.085 11.9778 35.8631 12.031 35.6609 12.1373L34.5661 12.7129L34.7752 11.4938C34.8524 11.0433 34.7031 10.5841 34.3759 10.2651L33.4902 9.40175L34.7143 9.22386C35.1666 9.15811 35.5573 8.87429 35.7595 8.4646L36.3068 7.35542L36.8542 8.46448C37.0565 8.87429 37.4472 9.15823 37.8994 9.22386L39.1234 9.40175L38.2377 10.2652Z" fill="black"/>
<path id="Vector_27" d="M45.6224 14.5118C45.8658 14.6885 46.1504 14.7784 46.437 14.7784C46.6575 14.7783 46.8794 14.7251 47.0842 14.6174L48.67 13.7837L50.2558 14.6174C50.7269 14.8651 51.287 14.8246 51.7177 14.5118C52.1484 14.1991 52.36 13.6787 52.27 13.1541L51.9672 11.3883L53.2503 10.1377C53.6314 9.76608 53.7659 9.22081 53.6014 8.71468C53.437 8.20854 53.0076 7.84655 52.4808 7.77003L50.7079 7.51233L49.915 5.90581C49.6795 5.4285 49.2024 5.13202 48.6701 5.13202C48.1379 5.13202 47.6609 5.42862 47.4254 5.90581L46.6325 7.51233L44.8594 7.77003C44.3328 7.84655 43.9034 8.20854 43.7389 8.71479C43.5745 9.22093 43.709 9.7662 44.0902 10.1378L45.373 11.3883L45.0702 13.1541C44.9802 13.6787 45.1919 14.1989 45.6224 14.5118V14.5118ZM47.0774 9.22397C47.5298 9.15835 47.9206 8.8744 48.1227 8.4646L48.6701 7.35542L49.2175 8.46448C49.4198 8.87429 49.8105 9.15823 50.2627 9.22386L51.4868 9.40175L50.6011 10.2651C50.2739 10.5841 50.1246 11.0433 50.2019 11.4938L50.4109 12.7128L49.3162 12.1373C49.1139 12.0308 48.8921 11.9778 48.6702 11.9778C48.4484 11.9778 48.2264 12.031 48.0243 12.1373L46.9295 12.7129L47.1385 11.4941C47.2159 11.0437 47.0666 10.5842 46.7393 10.2652L45.8536 9.40186L47.0774 9.22397Z" fill="black"/>
<path id="Vector_28" d="M8.79004 3.3483H56.641C57.0491 3.3483 57.3813 3.68029 57.3813 4.08846V16.8569C57.3813 17.265 57.0493 17.597 56.6411 17.597H50.4085C49.9231 17.597 49.5296 17.9905 49.5296 18.4759C49.5296 18.9613 49.9231 19.3548 50.4085 19.3548H56.6411C58.0185 19.3548 59.1391 18.2343 59.1391 16.8569V4.08858C59.1391 2.71115 58.0185 1.59061 56.641 1.59061H8.79004C8.30465 1.59061 7.91113 1.98412 7.91113 2.46951C7.91113 2.9549 8.30465 3.3483 8.79004 3.3483V3.3483Z" fill="black"/>
<path id="Vector_29" d="M3.61125 19.3549H24.9642C25.1297 19.3549 25.2838 19.444 25.3665 19.5872L28.5257 25.0589C28.8596 25.6375 29.4579 25.9828 30.126 25.9828C30.7941 25.9828 31.3923 25.6375 31.7264 25.0589L34.8855 19.5872C34.9683 19.4439 35.1225 19.3549 35.2878 19.3549H46.8926C47.378 19.3549 47.7715 18.9614 47.7715 18.476C47.7715 17.9906 47.378 17.5971 46.8926 17.5971H35.2878C34.4965 17.5971 33.759 18.0229 33.3633 18.7083L30.2041 24.18C30.1964 24.1935 30.1781 24.2251 30.126 24.2251C30.0739 24.2251 30.0557 24.1936 30.0479 24.1801L26.8888 18.7084C26.493 18.023 25.7556 17.5972 24.9642 17.5972H3.61125C3.20309 17.5972 2.87109 17.2653 2.87109 16.8571V4.08858C2.87109 3.68041 3.20309 3.34842 3.61125 3.34842H5.27426C5.75965 3.34842 6.15316 2.9549 6.15316 2.46951C6.15316 1.98412 5.75965 1.59061 5.27426 1.59061H3.61125C2.23383 1.59061 1.11328 2.71115 1.11328 4.08858V16.857C1.11328 18.2343 2.23395 19.3549 3.61125 19.3549V19.3549Z" fill="black"/>
</g>
</g>
</g>
<defs>
<clipPath id="clip0_319_18982">
<rect width="60" height="60" fill="white"/>
</clipPath>
</defs>
</svg>
