<svg width="142" height="21" viewBox="0 0 142 21" fill="none" xmlns="http://www.w3.org/2000/svg">
<path id="Line 2" d="M141.9 5.43534C142.141 4.93814 141.933 4.34017 141.435 4.09974L133.333 0.181691C132.836 -0.0587394 132.238 0.149417 131.997 0.646621C131.757 1.14382 131.965 1.7418 132.462 1.98222L139.664 5.46493L136.182 12.6671C135.941 13.1643 136.149 13.7622 136.647 14.0027C137.144 14.2431 137.742 14.0349 137.982 13.5377L141.9 5.43534ZM140.671 4.05559C140.193 4.22191 139.718 4.38678 139.243 4.5502L139.895 6.44102C140.371 6.27693 140.849 6.1114 141.329 5.94442L140.671 4.05559ZM136.421 5.51331C135.467 5.83531 134.521 6.15126 133.581 6.46117L134.208 8.36044C135.152 8.04906 136.102 7.73165 137.06 7.40823L136.421 5.51331ZM130.757 7.38194C129.796 7.69113 128.843 7.9938 127.897 8.28998L128.494 10.1986C129.446 9.90082 130.404 9.59653 131.369 9.28576L130.757 7.38194ZM125.056 9.16624C124.093 9.45871 123.138 9.74425 122.189 10.0229L122.753 11.9418C123.707 11.6614 124.669 11.3741 125.637 11.0799L125.056 9.16624ZM119.323 10.8498C118.361 11.122 117.406 11.3869 116.459 11.6445L116.983 13.5745C117.938 13.315 118.899 13.0483 119.867 12.7742L119.323 10.8498ZM113.566 12.4134C112.597 12.6648 111.636 12.9084 110.681 13.1441L111.16 15.0858C112.123 14.8481 113.092 14.6026 114.068 14.3492L113.566 12.4134ZM107.785 13.8395C106.808 14.0675 105.837 14.2871 104.873 14.4983L105.301 16.452C106.274 16.2388 107.254 16.0172 108.24 15.7872L107.785 13.8395ZM101.964 15.1134C100.985 15.313 100.011 15.5038 99.0435 15.6856L99.4129 17.6512C100.391 17.4674 101.374 17.2747 102.363 17.0731L101.964 15.1134ZM96.1081 16.2131C95.1245 16.3815 94.1464 16.5406 93.1731 16.6904L93.4773 18.6671C94.4619 18.5156 95.4512 18.3547 96.4457 18.1844L96.1081 16.2131ZM90.2344 17.1162C89.2443 17.2507 88.2588 17.3754 87.2774 17.4902L87.5098 19.4767C88.5037 19.3604 89.5014 19.2342 90.5036 19.0981L90.2344 17.1162ZM84.3203 17.8077C83.3306 17.9043 82.3445 17.9908 81.3614 18.0672L81.5164 20.0612C82.5127 19.9838 83.512 19.8961 84.5146 19.7982L84.3203 17.8077ZM78.3958 18.2676C77.4033 18.3246 76.4132 18.3711 75.4251 18.4073L75.4982 20.4059C76.5003 20.3693 77.5041 20.3221 78.5103 20.2644L78.3958 18.2676ZM72.4548 18.4849C71.4635 18.5003 70.4734 18.5053 69.4839 18.4998L69.4728 20.4998C70.4764 20.5053 71.4806 20.5003 72.486 20.4846L72.4548 18.4849ZM66.5122 18.4518C65.5227 18.4253 64.5332 18.3883 63.5431 18.3409L63.4474 20.3386C64.4516 20.3867 65.4551 20.4242 66.4587 20.451L66.5122 18.4518ZM60.5768 18.1676C59.5901 18.0997 58.6022 18.0214 57.6123 17.9327L57.4339 19.9247C58.4373 20.0146 59.4389 20.094 60.4394 20.1629L60.5768 18.1676ZM54.654 17.6377C53.6735 17.53 52.6905 17.4123 51.7045 17.2845L51.4474 19.2679C52.4462 19.3973 53.4421 19.5166 54.4357 19.6258L54.654 17.6377ZM48.7589 16.8742C47.7814 16.7287 46.8004 16.5735 45.8154 16.4085L45.485 18.3811C46.4818 18.548 47.4748 18.7051 48.4644 18.8524L48.7589 16.8742ZM42.8895 15.8922C41.921 15.7127 40.9481 15.5239 39.9703 15.3259L39.5734 17.2861C40.5617 17.4863 41.5454 17.6771 42.525 17.8587L42.8895 15.8922ZM37.0527 14.711C36.0897 14.5001 35.1217 14.2805 34.1479 14.0522L33.6913 15.9993C34.6744 16.2299 35.6521 16.4517 36.625 16.6647L37.0527 14.711ZM31.2583 13.3529C30.3005 13.1142 29.337 12.8671 28.3673 12.6117L27.858 14.5458C28.836 14.8033 29.808 15.0526 30.7745 15.2935L31.2583 13.3529ZM25.4883 11.8344C24.5405 11.5723 23.5866 11.3025 22.6261 11.025L22.071 12.9464C23.0386 13.226 23.9999 13.4979 24.9552 13.7621L25.4883 11.8344ZM19.7574 10.1792C18.8148 9.89587 17.8657 9.6053 16.9097 9.30751L16.3149 11.217C17.277 11.5167 18.2325 11.8092 19.1816 12.0946L19.7574 10.1792ZM14.0682 8.40776C13.1249 8.10433 12.1749 7.79408 11.2177 7.47702L10.5888 9.37558C11.5513 9.6944 12.5068 10.0064 13.4558 10.3117L14.0682 8.40776ZM8.40259 6.53205C7.46565 6.21346 6.52179 5.88854 5.57071 5.55729L4.9129 7.44602C5.86849 7.77883 6.81699 8.10535 7.75873 8.42558L8.40259 6.53205ZM2.75983 4.56748C2.2878 4.39948 1.81398 4.22998 1.33833 4.05897L0.661668 5.94102C1.1393 6.11275 1.61514 6.28298 2.08923 6.4517L2.75983 4.56748Z" fill="#6440FB"/>
</svg>
