<svg width="45" height="45" viewBox="0 0 45 45" fill="none" xmlns="http://www.w3.org/2000/svg">
<g id="icon">
<rect id="Rectangle 190" width="45" height="45" rx="20" fill="black"/>
<path id="Vector" fill-rule="evenodd" clip-rule="evenodd" d="M11.6991 21.185L13.0486 21.9759V23.5556V25.1375V26.7172V28.2968L14.3982 29.0878L15.7477 29.8788L17.0973 30.6698L18.4468 31.4607L19.7964 32.2517L21.1459 33.0427L22.4954 33.8336L23.845 33.0427L25.1945 32.2517L26.5441 31.4607L27.8936 30.6698L29.2432 29.8788L30.5927 29.0878L31.9422 28.2968V26.7172V25.1375V23.5556V21.9759L33.2918 21.185V24.0457C33.1801 24.1141 33.1049 24.244 33.1049 24.3808C33.1049 24.5175 33.1687 24.6269 33.2644 24.6976L33.2188 24.8366L32.9476 25.6846H33.4901H34.0327L33.7614 24.8366L33.7158 24.6976C33.8138 24.6269 33.8754 24.5312 33.8754 24.3808C33.8754 24.2303 33.766 24.0639 33.6155 24.0092V20.9935L22.826 14.6703L23.152 14.4788L33.9529 20.802L34.6505 20.394L36 19.603L34.6505 18.8121L33.3009 18.0211L31.9514 17.2301L30.5995 16.4414L29.25 15.6505L27.9005 14.8595L26.5509 14.0708L25.2014 13.2799L23.8518 12.4889L22.5 11.7002L21.1505 12.4912L19.8009 13.2821L18.4491 14.0708L17.0995 14.8618L15.75 15.6528L14.4005 16.4414L13.0509 17.2324L11.7014 18.0234L10.3518 18.8143L9 19.603L10.3495 20.394L11.6991 21.185ZM21.1505 18.8143L22.5 18.0234L23.8495 18.8143L25.1991 19.6053L23.8495 20.3963L22.5 21.1873L21.1505 21.9759V23.5579L22.5 24.3488L23.8495 23.5579L25.1991 22.7669L26.5486 21.9759L27.8982 21.185L29.2477 20.394L30.1755 19.8492L30.5973 19.603L29.4506 18.9329L29.2477 18.8143L27.8982 18.0234L26.5486 17.2324L25.2014 16.4414L23.8518 15.6505L22.5023 14.8595L21.1505 15.6528L19.8009 16.4414L18.4514 17.2324L17.1018 18.0234L15.7523 18.8143L14.4027 19.6053L15.7523 20.3963V21.9759V23.5556V25.1375V25.949V26.7172L17.1018 27.5082L18.4514 28.2991L19.8009 29.0901L21.1505 29.8811L22.5 30.672L23.8495 29.8811L25.1991 29.0901L26.5486 28.2991L27.8982 27.5082L29.2477 26.7172V25.1375V23.5556L27.8982 24.3466L26.5486 25.1375L25.1991 25.9285L23.8495 26.7195L22.5 27.5104L21.1505 26.7172L19.8009 25.9262L18.4514 25.1353V20.394L19.8009 19.603L21.1505 18.8143Z" fill="white"/>
</g>
</svg>
