<svg width="50" height="50" viewBox="0 0 50 50" fill="none" xmlns="http://www.w3.org/2000/svg">
<g id="online-course 1" clip-path="url(#clip0_319_18927)">
<g id="Group">
<path id="Vector" d="M48.5348 6.61876H40.6819L25.4633 1.54579C25.1555 1.44323 24.8223 1.44567 24.516 1.55283L10.0421 6.61876H1.46519C0.656013 6.61876 0 7.27477 0 8.08395V41.1806C0 41.9897 0.656013 42.6458 1.46519 42.6458H14.7092V45.5989H10.2907C9.48152 45.5989 8.82551 46.2549 8.82551 47.0641C8.82551 47.8733 9.48152 48.5293 10.2907 48.5293H39.7093C40.5185 48.5293 41.1745 47.8733 41.1745 47.0641C41.1745 46.2549 40.5185 45.5989 39.7093 45.5989H35.2908V42.6457H48.5348C49.344 42.6457 50 41.9896 50 41.1805V8.08395C50 7.27468 49.3441 6.61876 48.5348 6.61876V6.61876ZM16.9044 11.9512C24.7527 14.7044 24.644 14.6975 25 14.6975C25.3392 14.6975 25.2307 14.7044 33.0957 12.0782V15.9034L25 19.0174L16.9044 15.9034V11.9512ZM25.0115 4.48408L35.8114 8.08405L25.0115 11.684L14.7259 8.08405L25.0115 4.48408ZM32.3603 45.5989H17.6396V42.6457H32.3604V45.5989H32.3603ZM47.0696 39.7153C40.612 39.7153 12.6863 39.7153 2.93037 39.7153V9.54914H10.0411L13.974 10.9256V16.9097C13.974 17.5158 14.3473 18.0595 14.9132 18.2772C24.6904 22.0471 24.6111 22.0525 25 22.0525C25.3887 22.0525 25.3138 22.0554 35.0868 18.2772C35.6527 18.0595 36.026 17.5158 36.026 16.9097V11.1015L38.9798 10.1168V18.3807C38.9798 19.1899 39.6359 19.8459 40.445 19.8459C41.2542 19.8459 41.9102 19.1899 41.9102 18.3807V9.54914H47.0696V39.7153Z" fill="#6440FB"/>
<path id="Vector_2" d="M13.2327 26.4768H7.34898C6.5398 26.4768 5.88379 27.1328 5.88379 27.942V33.8257C5.88379 34.6349 6.5398 35.2909 7.34898 35.2909H13.2327C14.0419 35.2909 14.6979 34.6349 14.6979 33.8257V27.942C14.6979 27.1328 14.0419 26.4768 13.2327 26.4768ZM11.7675 32.3605H8.81416V29.4072H11.7675V32.3605Z" fill="#6440FB"/>
<path id="Vector_3" d="M19.1166 26.4768C18.3074 26.4768 17.6514 27.1328 17.6514 27.942C17.6514 28.7512 18.3074 29.4072 19.1166 29.4072H42.6515C43.4606 29.4072 44.1167 28.7512 44.1167 27.942C44.1167 27.1328 43.4606 26.4768 42.6515 26.4768H19.1166Z" fill="#6440FB"/>
<path id="Vector_4" d="M42.6515 32.3604H19.1166C18.3074 32.3604 17.6514 33.0164 17.6514 33.8256C17.6514 34.6348 18.3074 35.2908 19.1166 35.2908H42.6515C43.4606 35.2908 44.1167 34.6348 44.1167 33.8256C44.1167 33.0164 43.4606 32.3604 42.6515 32.3604Z" fill="#6440FB"/>
</g>
</g>
<defs>
<clipPath id="clip0_319_18927">
<rect width="50" height="50" fill="white"/>
</clipPath>
</defs>
</svg>
