<svg width="60" height="43" viewBox="0 0 60 43" fill="none" xmlns="http://www.w3.org/2000/svg">
<path id="&#226;&#128;&#156;" d="M14.837 42.3292C11.0326 42.3292 7.6087 40.8075 4.56522 37.764C1.52174 34.6119 0 29.9923 0 23.9053C0 16.9488 1.84783 11.2966 5.54348 6.94881C9.34783 2.49229 14.7283 0.264038 21.6848 0.264038C24.1848 0.264038 26.1413 0.427076 27.5543 0.753159V8.25316C26.0326 8.03577 24.0761 7.92708 21.6848 7.92708C17.9891 7.92708 15 9.17708 12.7174 11.6771C10.5435 13.851 9.29348 16.7314 8.96739 20.3184C10.3804 18.5792 12.663 17.7097 15.8152 17.7097C19.0761 17.7097 21.8478 18.851 24.1304 21.1336C26.413 23.3075 27.5543 26.1879 27.5543 29.7749C27.5543 33.4706 26.3587 36.514 23.9674 38.9053C21.5761 41.1879 18.5326 42.3292 14.837 42.3292ZM47.2826 42.3292C43.4783 42.3292 40.0543 40.8075 37.0109 37.764C33.9674 34.6119 32.4456 29.9923 32.4456 23.9053C32.4456 16.9488 34.2935 11.2966 37.9891 6.94881C41.7935 2.49229 47.1739 0.264038 54.1304 0.264038C56.6304 0.264038 58.587 0.427076 60 0.753159V8.25316C58.4783 8.03577 56.5217 7.92708 54.1304 7.92708C50.4348 7.92708 47.4456 9.17708 45.163 11.6771C42.9891 13.851 41.7391 16.7314 41.413 20.3184C42.8261 18.5792 45.1087 17.7097 48.2609 17.7097C51.5217 17.7097 54.2935 18.851 56.5761 21.1336C58.8587 23.3075 60 26.1879 60 29.7749C60 33.4706 58.8043 36.514 56.413 38.9053C54.0217 41.1879 50.9783 42.3292 47.2826 42.3292Z" fill="#1A064F"/>
</svg>
