<svg width="32" height="32" viewBox="0 0 32 32" fill="none" xmlns="http://www.w3.org/2000/svg">
<g id="Group">
<g id="Group_2">
<path id="Vector" d="M16.8867 5.17106C18.0986 9.77651 21.6537 13.4124 26.2591 14.6244L31.1878 15.9171L26.2591 17.2099C21.6537 18.4218 18.0986 22.0577 16.8867 26.6632L15.5939 31.8342L14.3011 26.6632C13.0892 22.0577 9.53412 18.4218 4.92867 17.2099L0 15.9171L4.92867 14.6244C9.53412 13.4124 13.0892 9.77651 14.3011 5.17106L15.5939 3.05176e-05L16.8867 5.17106ZM15.5939 22.5425C17.0483 19.7146 19.3914 17.3715 22.2193 15.9171C19.3914 14.382 17.1291 12.1196 15.5939 9.29173C14.1396 12.1196 11.7964 14.4628 8.96854 15.9171C11.7964 17.4523 14.0588 19.7146 15.5939 22.5425Z" fill="#FF9C31"/>
</g>
</g>
</svg>
