<svg width="50" height="50" viewBox="0 0 50 50" fill="none" xmlns="http://www.w3.org/2000/svg">
<g id="access 1">
<g id="Group">
<g id="Group_2">
<g id="Group_3">
<path id="Vector" d="M35.9843 6.68225H24.091C23.5376 6.68225 23.0889 7.13088 23.0889 7.6844C23.0889 8.23792 23.5377 8.68655 24.091 8.68655H35.9843C36.5377 8.68655 36.9864 8.23792 36.9864 7.6844C36.9864 7.13088 36.5376 6.68225 35.9843 6.68225Z" fill="#1A064F"/>
<path id="Vector_2" d="M18.09 8.68667H18.4909C19.0443 8.68667 19.4931 8.23804 19.4931 7.68452C19.4931 7.13101 19.0442 6.68237 18.4909 6.68237H18.09C17.5366 6.68237 17.0879 7.13101 17.0879 7.68452C17.0879 8.23804 17.5366 8.68667 18.09 8.68667Z" fill="#1A064F"/>
<path id="Vector_3" d="M13.8302 7.68452C13.8302 7.13101 13.3814 6.68237 12.828 6.68237H5.01094C4.45752 6.68237 4.00879 7.13101 4.00879 7.68452C4.00879 8.23804 4.45762 8.68667 5.01094 8.68667H12.828C13.3813 8.68667 13.8302 8.23794 13.8302 7.68452Z" fill="#1A064F"/>
<path id="Vector_4" d="M31.6948 17.3322H17.3868C16.9212 15.0477 14.8967 13.3235 12.4768 13.3235C9.71377 13.3235 7.46582 15.5713 7.46582 18.3344C7.46582 21.0974 9.71367 23.3454 12.4768 23.3454C14.8967 23.3454 16.9213 21.6211 17.3868 19.3367H26.9345V22.3432C26.9345 22.8967 27.3833 23.3454 27.9366 23.3454C28.4899 23.3454 28.9388 22.8967 28.9388 22.3432V19.3367H30.6926V21.007C30.6926 21.5605 31.1414 22.0091 31.6947 22.0091C32.248 22.0091 32.6969 21.5605 32.6969 21.007V18.3344C32.697 17.7808 32.2482 17.3322 31.6948 17.3322ZM12.4768 21.3409C10.8189 21.3409 9.47021 19.9921 9.47021 18.3343C9.47021 16.6765 10.8189 15.3278 12.4768 15.3278C14.1346 15.3278 15.4833 16.6765 15.4833 18.3343C15.4833 19.9921 14.1346 21.3409 12.4768 21.3409Z" fill="#1A064F"/>
<path id="Vector_5" d="M45.1892 39.1585C46.2584 37.9514 46.9095 36.3657 46.9095 34.6301V31.5832C46.9095 28.1257 44.3298 25.2613 40.9943 24.8087V7.07307C40.9943 4.64709 39.0207 2.67346 36.5948 2.67346H4.39961C1.97363 2.67346 0 4.64709 0 7.07307V28.163C0 30.5895 1.97363 32.5636 4.39961 32.5636H14.742C14.6365 34.5962 14.2701 36.5674 13.6505 38.4447H11.0784C10.525 38.4447 10.0763 38.8933 10.0763 39.4468C10.0763 40.0003 10.525 40.4489 11.0784 40.4489H29.9165C30.4699 40.4489 30.9187 40.0003 30.9187 39.4468C30.9187 38.8933 30.4698 38.4447 29.9165 38.4447H27.3445C26.7249 36.5673 26.3584 34.596 26.253 32.5636H33.2325V34.6301C33.2325 36.3657 33.8836 37.9514 34.9528 39.1585C32.1333 40.3176 30.142 43.0919 30.142 46.3244C30.142 46.878 30.5908 47.3266 31.1441 47.3266H48.9979C49.5513 47.3266 50 46.878 50 46.3244C50 43.0918 48.0088 40.3176 45.1892 39.1585ZM40.071 26.7491C42.7365 26.7491 44.9052 28.9177 44.9052 31.5832V34.6301C44.9052 37.2957 42.7365 39.4643 40.071 39.4643C37.4055 39.4643 35.2368 37.2957 35.2368 34.6302V31.5833C35.2368 28.9177 37.4055 26.7491 40.071 26.7491ZM15.7528 38.4447C16.3186 36.5559 16.6523 34.586 16.749 32.5636H24.2457C24.3424 34.5859 24.6761 36.5555 25.2419 38.4447H15.7528ZM33.3093 30.5592H4.39961C3.07891 30.5592 2.00439 29.4843 2.00439 28.163V27.4525H34.6256C33.9482 28.3433 33.4835 29.4041 33.3093 30.5592ZM2.00439 25.4481V7.07307C2.00439 5.75237 3.07891 4.67786 4.39961 4.67786H36.5947C37.9154 4.67786 38.9898 5.75227 38.9898 7.07307V24.831C38.3056 24.9402 37.6552 25.1514 37.0539 25.4482H2.00439V25.4481ZM32.2339 45.3222C32.651 42.9619 34.515 41.0949 36.8735 40.6725C37.8284 41.1798 38.9165 41.4685 40.071 41.4685C41.2255 41.4685 42.3136 41.1797 43.2685 40.6725C45.6269 41.0949 47.4908 42.9619 47.9081 45.3222H32.2339Z" fill="#1A064F"/>
</g>
</g>
</g>
</g>
</svg>
