<svg width="50" height="50" viewBox="0 0 50 50" fill="none" xmlns="http://www.w3.org/2000/svg">
<g id="online-learning (5) 1" clip-path="url(#clip0_169_3720)">
<g id="XMLID_1124_">
<g id="XMLID_258_">
<path id="XMLID_284_" d="M23.7131 20.996H11.117C9.3126 20.996 7.84473 22.4638 7.84473 24.2682V32.9581C7.84473 34.7625 9.3126 36.2303 11.117 36.2303H23.7131C25.5175 36.2303 26.9854 34.7625 26.9854 32.9581V24.2682C26.9854 22.4638 25.5175 20.996 23.7131 20.996ZM25.0322 32.9581C25.0322 33.6854 24.4404 34.2772 23.7131 34.2772H11.117C10.3896 34.2772 9.79785 33.6854 9.79785 32.9581V24.2682C9.79785 23.5409 10.3896 22.9491 11.117 22.9491H23.7131C24.4404 22.9491 25.0322 23.5409 25.0322 24.2682V32.9581Z" fill="black"/>
<path id="XMLID_285_" d="M19.201 27.7675L16.6074 26.2702C16.3053 26.0957 15.933 26.0957 15.6309 26.2702C15.3287 26.4446 15.1426 26.767 15.1426 27.1159V30.1106C15.1426 30.4594 15.3287 30.7819 15.6309 30.9563C15.7819 31.0436 15.9505 31.0872 16.1191 31.0872C16.2878 31.0872 16.4563 31.0436 16.6074 30.9563L19.201 29.4589C19.5031 29.2845 19.6893 28.9621 19.6893 28.6132C19.6893 28.2644 19.5031 27.9419 19.201 27.7675Z" fill="black"/>
<path id="XMLID_288_" d="M49.4743 9.09468L37.2791 2.74702C36.9964 2.59995 36.66 2.59995 36.3773 2.74702L24.182 9.09468C23.859 9.26284 23.6563 9.59673 23.6563 9.96089C23.6563 10.325 23.859 10.6589 24.182 10.8271L28.8777 13.2712V15.332H9.27734C5.66953 15.332 2.73438 18.2671 2.73438 21.875V39.9414H0.976562C0.437305 39.9414 0 40.3787 0 40.9179C0 44.4719 2.89131 47.3632 6.44531 47.3632H38.2812C41.8353 47.3632 44.7266 44.4719 44.7266 40.9179C44.7266 40.3787 44.2893 39.9414 43.75 39.9414H41.9922V21.875C41.9922 21.738 41.9863 21.6013 41.9778 21.4647L44.1838 20.5277C44.5444 20.3746 44.7786 20.0207 44.7786 19.6289V13.2712L48.0469 11.5701V17.5469C48.0469 18.0862 48.4842 18.5235 49.0234 18.5235C49.5627 18.5235 50 18.0862 50 17.5469V9.96089C50 9.59663 49.7974 9.26274 49.4743 9.09468ZM40.0391 39.9414H26.7578C26.2186 39.9414 25.7812 40.3787 25.7812 40.9179C25.7812 41.4572 26.2186 41.8945 26.7578 41.8945H42.6665C42.2193 43.9034 40.4229 45.4101 38.2812 45.4101H6.44531C4.30361 45.4101 2.50723 43.9034 2.06006 41.8945H17.9688C18.508 41.8945 18.9453 41.4572 18.9453 40.9179C18.9453 40.3787 18.508 39.9414 17.9688 39.9414H4.6875V21.875C4.6875 19.3441 6.74648 17.2851 9.27734 17.2851H28.8777V19.6289C28.8777 20.0207 29.1118 20.3746 29.4726 20.5277L36.4465 23.4899C36.5685 23.5417 36.6983 23.5676 36.8282 23.5676C36.9581 23.5676 37.088 23.5417 37.21 23.4899L40.0391 22.2882V39.9414ZM42.8255 18.9827L36.8282 21.5301L30.8309 18.9827V14.2878L36.3773 17.1748C36.5187 17.2483 36.6734 17.2851 36.8282 17.2851C36.983 17.2851 37.1378 17.2483 37.2791 17.1748L42.8255 14.2878V18.9827ZM36.8282 15.2076L26.748 9.96089L36.8282 4.71411L46.9083 9.96089L36.8282 15.2076Z" fill="black"/>
<path id="XMLID_291_" d="M36.1377 9.27039C35.9561 9.45203 35.8516 9.70398 35.8516 9.96082C35.8516 10.2177 35.956 10.4696 36.1377 10.6511C36.3193 10.8328 36.5713 10.9374 36.8281 10.9374C37.085 10.9374 37.3369 10.8329 37.5185 10.6511C37.7001 10.4696 37.8047 10.2177 37.8047 9.96082C37.8047 9.70398 37.7002 9.45203 37.5185 9.27039C37.3369 9.08875 37.0858 8.98425 36.8281 8.98425C36.5713 8.98435 36.3193 9.08875 36.1377 9.27039Z" fill="black"/>
<path id="XMLID_297_" d="M36.2956 34.2773H30.957C30.4178 34.2773 29.9805 34.7146 29.9805 35.2539C29.9805 35.7932 30.4178 36.2305 30.957 36.2305H36.2956C36.8349 36.2305 37.2722 35.7932 37.2722 35.2539C37.2722 34.7146 36.8349 34.2773 36.2956 34.2773Z" fill="black"/>
<path id="XMLID_298_" d="M36.2956 29.5898H30.957C30.4178 29.5898 29.9805 30.0271 29.9805 30.5664C29.9805 31.1057 30.4178 31.543 30.957 31.543H36.2956C36.8349 31.543 37.2722 31.1057 37.2722 30.5664C37.2722 30.0271 36.8349 29.5898 36.2956 29.5898Z" fill="black"/>
<path id="XMLID_299_" d="M22.3633 39.9414C22.1064 39.9414 21.8545 40.0458 21.6729 40.2275C21.4912 40.4093 21.3867 40.6601 21.3867 40.918C21.3867 41.1748 21.4911 41.4268 21.6729 41.6083C21.8545 41.7899 22.1064 41.8945 22.3633 41.8945C22.6201 41.8945 22.8721 41.79 23.0536 41.6083C23.2354 41.4268 23.3398 41.1748 23.3398 40.918C23.3398 40.6611 23.2354 40.4092 23.0536 40.2275C22.8721 40.0458 22.6201 39.9414 22.3633 39.9414Z" fill="black"/>
</g>
</g>
</g>
<defs>
<clipPath id="clip0_169_3720">
<rect width="50" height="50" fill="black"/>
</clipPath>
</defs>
</svg>
