<svg width="50" height="50" viewBox="0 0 50 50" fill="none" xmlns="http://www.w3.org/2000/svg">
<g id="rating (1) 1">
<path id="Vector" d="M25.9766 39.6484C25.9766 40.1878 25.5394 40.625 25 40.625C24.4606 40.625 24.0234 40.1878 24.0234 39.6484C24.0234 39.109 24.4606 38.6719 25 38.6719C25.5394 38.6719 25.9766 39.109 25.9766 39.6484Z" fill="#1A064F"/>
<path id="Vector_2" d="M46.7773 30.8594C46.7773 27.6283 44.149 25 40.918 25C37.6869 25 35.0586 27.6283 35.0586 30.8594C35.0586 34.0904 37.6869 36.7188 40.918 36.7188C44.149 36.7188 46.7773 34.0904 46.7773 30.8594ZM40.918 34.7656C38.7642 34.7656 37.0117 33.0132 37.0117 30.8594C37.0117 28.7056 38.7642 26.9531 40.918 26.9531C43.0717 26.9531 44.8242 28.7056 44.8242 30.8594C44.8242 33.0132 43.0717 34.7656 40.918 34.7656Z" fill="#1A064F"/>
<path id="Vector_3" d="M40.918 36.7188C38.4571 36.7188 36.0031 37.7403 34.3315 39.3967C32.1312 36.5051 28.7384 34.7656 25 34.7656C21.4199 34.7656 17.9508 36.3991 15.6689 39.3967C13.9969 37.7407 11.5433 36.7188 9.08203 36.7188C4.15916 36.7188 0 40.7436 0 45.5078V47.4609C0 48.0003 0.437164 48.4375 0.976562 48.4375H49.0234C49.5628 48.4375 50 48.0003 50 47.4609V45.5078C50 40.7436 45.8408 36.7188 40.918 36.7188ZM1.95312 45.5078C1.95312 41.8022 5.21774 38.6719 9.08203 38.6719C11.1965 38.6719 13.2935 39.6088 14.5916 41.098C13.7333 42.7559 13.2812 44.6037 13.2812 46.4844H1.95312V45.5078ZM25 36.7188C30.434 36.7188 34.7656 41.1278 34.7656 46.4844H15.2344C15.2344 41.0564 19.6545 36.7188 25 36.7188ZM48.0469 46.4844H36.7188C36.7188 44.6037 36.2667 42.7559 35.4084 41.098C36.7065 39.6088 38.8035 38.6719 40.918 38.6719C44.7823 38.6719 48.0469 41.8022 48.0469 45.5078V46.4844Z" fill="#1A064F"/>
<path id="Vector_4" d="M14.9414 30.8594C14.9414 27.6283 12.3131 25 9.08203 25C5.85098 25 3.22266 27.6283 3.22266 30.8594C3.22266 34.0904 5.85098 36.7188 9.08203 36.7188C12.3131 36.7188 14.9414 34.0904 14.9414 30.8594ZM9.08203 34.7656C6.92825 34.7656 5.17578 33.0132 5.17578 30.8594C5.17578 28.7056 6.92825 26.9531 9.08203 26.9531C11.2358 26.9531 12.9883 28.7056 12.9883 30.8594C12.9883 33.0132 11.2358 34.7656 9.08203 34.7656Z" fill="#1A064F"/>
<path id="Vector_5" d="M32.8125 26.9531C32.8125 22.6452 29.3079 19.1406 25 19.1406C20.6921 19.1406 17.1875 22.6452 17.1875 26.9531C17.1875 31.2611 20.6921 34.7656 25 34.7656C29.3079 34.7656 32.8125 31.2611 32.8125 26.9531ZM25 32.8125C21.769 32.8125 19.1406 30.1842 19.1406 26.9531C19.1406 23.7221 21.769 21.0938 25 21.0938C28.231 21.0938 30.8594 23.7221 30.8594 26.9531C30.8594 30.1842 28.231 32.8125 25 32.8125Z" fill="#1A064F"/>
<path id="Vector_6" d="M32.7285 7.2422C32.6137 6.88858 32.3081 6.63109 31.94 6.57768L27.7278 5.96619L25.8418 2.11029C25.6782 1.77498 25.3379 1.5625 24.9648 1.5625C24.5917 1.5625 24.2515 1.77498 24.0874 2.10991L22.2018 5.96619L17.9896 6.5773C17.6215 6.63071 17.3159 6.88858 17.2011 7.2422C17.0863 7.59583 17.1821 7.98378 17.4483 8.24318L20.4986 11.216L19.7787 15.414C19.7158 15.7803 19.8665 16.1507 20.1674 16.3689C20.4665 16.5863 20.8648 16.6172 21.1959 16.4433L24.9648 14.4615L28.7353 16.4433C29.0641 16.6164 29.4627 16.5874 29.7637 16.3689C30.0643 16.1503 30.215 15.7803 30.152 15.4137L29.4314 11.216L32.4813 8.24318C32.7476 7.98378 32.8433 7.59583 32.7285 7.2422ZM27.6999 10.1757C27.4699 10.4 27.3646 10.7235 27.4192 11.0401L27.8918 13.7939L25.4191 12.4939C25.1346 12.3444 24.7947 12.3444 24.5101 12.4939L22.0382 13.7939L22.5104 11.0401C22.5646 10.7231 22.4593 10.4 22.2293 10.1757L20.2289 8.22601L22.9926 7.82471C23.3123 7.77855 23.5881 7.57713 23.7296 7.28722L24.9648 4.76189L26.1996 7.28722C26.3415 7.57751 26.6173 7.77855 26.9366 7.82471L29.7008 8.22601L27.6999 10.1757Z" fill="#1A064F"/>
<path id="Vector_7" d="M47.3252 14.5615C47.2104 14.2078 46.9048 13.9503 46.5367 13.8969L43.6829 13.4823L42.4069 10.8959C42.2425 10.5625 41.9034 10.3516 41.5314 10.3516C41.5314 10.3516 41.5314 10.3516 41.531 10.3516C41.1595 10.3516 40.82 10.5625 40.6556 10.8959L39.3788 13.4823L36.5246 13.8969C36.1569 13.9503 35.8513 14.2078 35.7365 14.5615C35.6213 14.9151 35.7171 15.303 35.9833 15.5624L38.0482 17.5762L37.5607 20.4182C37.4981 20.7844 37.6484 21.1544 37.9494 21.373C38.25 21.5916 38.6487 21.6206 38.9775 21.4478L41.531 20.1061L44.0838 21.4478C44.4127 21.6206 44.8117 21.5916 45.1123 21.373C45.4129 21.1548 45.5632 20.7844 45.5006 20.4182L45.0131 17.5762L47.0784 15.5624C47.3447 15.303 47.44 14.9151 47.3252 14.5615ZM43.2824 16.5363C43.052 16.7606 42.9471 17.0837 43.0016 17.4004L43.2412 18.7981L41.9858 18.1385C41.7012 17.989 41.3613 17.989 41.0771 18.1385L39.8205 18.7984L40.0605 17.4004C40.1147 17.0837 40.0097 16.7606 39.7797 16.5363L38.7635 15.5453L40.1677 15.3416C40.4858 15.2954 40.7609 15.0955 40.9031 14.8075L41.531 13.5353L42.1586 14.8071C42.3009 15.0955 42.5759 15.2954 42.894 15.3416L44.2982 15.5453L43.2824 16.5363Z" fill="#1A064F"/>
<path id="Vector_8" d="M14.1221 14.5615C14.0072 14.2078 13.7017 13.9503 13.3336 13.8969L10.4798 13.4823L9.20378 10.8959C9.03936 10.5625 8.70024 10.3516 8.3283 10.3516C7.95637 10.3516 7.61686 10.5625 7.45245 10.8959L6.17567 13.4823L3.32151 13.8969C2.95377 13.9503 2.64822 14.2078 2.53339 14.5615C2.41819 14.9151 2.51394 15.303 2.78021 15.5624L4.8451 17.5762L4.35797 20.4182C4.29502 20.7844 4.4457 21.1544 4.7463 21.373C5.0469 21.5916 5.44554 21.6206 5.77474 21.4478L8.32792 20.1061L10.8807 21.4478C11.2118 21.6217 11.6101 21.5904 11.9092 21.373C12.2098 21.1548 12.3604 20.7844 12.2975 20.4182L11.81 17.5762L13.8753 15.5624C14.1415 15.303 14.2369 14.9151 14.1221 14.5615ZM10.0789 16.5363C9.84884 16.7606 9.74394 17.0837 9.79811 17.4004L10.0381 18.7981L8.78225 18.1385C8.49806 17.989 8.15817 17.989 7.87397 18.1385L6.61703 18.7984L6.85698 17.4004C6.91153 17.0837 6.80624 16.7606 6.57621 16.5363L5.55998 15.5453L6.96455 15.3416C7.28231 15.2954 7.55735 15.0955 7.69964 14.8075L8.32754 13.5353L8.95506 14.8071C9.09735 15.0955 9.37239 15.2954 9.69053 15.3416L11.0947 15.5453L10.0789 16.5363Z" fill="#1A064F"/>
<path id="Vector_9" d="M29.2786 39.9505C28.8277 39.6541 28.2223 39.7796 27.9263 40.2305C27.6299 40.6811 27.7554 41.2865 28.2063 41.5829C29.1092 42.176 29.8309 43.0031 30.2933 43.9743C30.5244 44.4607 31.1066 44.6686 31.5945 44.4362C32.0816 44.2047 32.2884 43.6218 32.0568 43.135C31.4411 41.8411 30.4802 40.7398 29.2786 39.9505Z" fill="#1A064F"/>
</g>
</svg>
