<svg width="50" height="50" viewBox="0 0 50 50" fill="none" xmlns="http://www.w3.org/2000/svg">
<g id="online-learning (4) 1" clip-path="url(#clip0_169_3709)">
<path id="Vector" d="M47.0703 0H19.7266C18.111 0 16.7969 1.31416 16.7969 2.92969V8.98438H2.92969C1.31416 8.98438 0 10.2985 0 11.9141V47.0703C0 48.6858 1.31416 50 2.92969 50H30.2734C31.889 50 33.2031 48.6858 33.2031 47.0703V41.0156H47.0703C48.6858 41.0156 50 39.7015 50 38.0859V27.2038C50 26.6644 49.5628 26.2272 49.0234 26.2272C48.484 26.2272 48.0469 26.6644 48.0469 27.2038V38.0859C48.0469 38.6246 47.6089 39.0625 47.0703 39.0625H32.2277C32.2273 39.0625 32.2269 39.0625 32.2266 39.0625C32.2262 39.0625 32.2258 39.0625 32.2254 39.0625H19.7266C19.1879 39.0625 18.75 38.6246 18.75 38.0859V9.76562H48.0469V18.4147C48.0469 18.9541 48.484 19.3913 49.0234 19.3913C49.5628 19.3913 50 18.9541 50 18.4147V2.92969C50 1.31416 48.6858 0 47.0703 0ZM2.92969 10.9375H16.7969V12.8906H5.66406C5.12466 12.8906 4.6875 13.3278 4.6875 13.8672C4.6875 14.4066 5.12466 14.8438 5.66406 14.8438H16.7969V16.7969H1.95312V11.9141C1.95312 11.3754 2.39105 10.9375 2.92969 10.9375ZM19.7266 41.0156H31.25V47.0703C31.25 47.6089 30.8121 48.0469 30.2734 48.0469H2.92969C2.39105 48.0469 1.95312 47.6089 1.95312 47.0703V18.75H16.7969V38.0859C16.7969 39.7015 18.111 41.0156 19.7266 41.0156ZM18.75 7.8125V2.92969C18.75 2.39105 19.1879 1.95312 19.7266 1.95312H47.0703C47.6089 1.95312 48.0469 2.39105 48.0469 2.92969V7.8125H18.75Z" fill="#1A064F"/>
<path id="Vector_2" d="M24.8047 22.8092C24.8047 27.5478 28.6598 31.403 33.3984 31.403C38.1371 31.403 41.9922 27.5478 41.9922 22.8092C41.9922 18.0706 38.1371 14.2155 33.3984 14.2155C28.6598 14.2155 24.8047 18.0706 24.8047 22.8092ZM35.3676 21.8326H31.4297C31.617 18.0935 32.8484 16.1686 33.3984 16.1686C33.9489 16.1686 35.1803 18.0935 35.3676 21.8326ZM33.3984 29.4498C32.8484 29.4498 31.6166 27.5249 31.4293 23.7858H35.3672C35.1803 27.5249 33.9485 29.4498 33.3984 29.4498ZM30.4806 16.8457C29.9023 18.2232 29.5639 20.0016 29.475 21.8326H26.8303C27.1549 19.638 28.5576 17.7906 30.4806 16.8457ZM26.8303 23.7858H29.475C29.5639 25.6168 29.9023 27.3952 30.4806 28.7727C28.5576 27.8282 27.1549 25.9804 26.8303 23.7858ZM36.3163 28.7727C36.8946 27.3952 37.233 25.6168 37.3219 23.7858H39.9666C39.642 25.9804 38.2393 27.8282 36.3163 28.7727ZM39.9666 21.8326H37.3219C37.233 20.0016 36.8946 18.2232 36.3163 16.8457C38.2393 17.7906 39.642 19.638 39.9666 21.8326Z" fill="#1A064F"/>
<path id="Vector_3" d="M49.0234 21.833C48.7667 21.833 48.5146 21.9364 48.333 22.1191C48.1514 22.2999 48.0469 22.5517 48.0469 22.8096C48.0469 23.0663 48.1514 23.3185 48.333 23.5C48.5146 23.6816 48.7667 23.7861 49.0234 23.7861C49.2802 23.7861 49.5323 23.6816 49.7139 23.5C49.8955 23.3185 50 23.0663 50 22.8096C50 22.5517 49.8955 22.3007 49.7139 22.1191C49.5323 21.9364 49.2802 21.833 49.0234 21.833Z" fill="#1A064F"/>
<path id="Vector_4" d="M33.3984 3.90625H21.6797C21.1403 3.90625 20.7031 4.34341 20.7031 4.88281C20.7031 5.42221 21.1403 5.85938 21.6797 5.85938H33.3984C33.9378 5.85938 34.375 5.42221 34.375 4.88281C34.375 4.34341 33.9378 3.90625 33.3984 3.90625Z" fill="#1A064F"/>
<path id="Vector_5" d="M45.1172 3.90625C44.8605 3.90625 44.6083 4.01077 44.4267 4.19235C44.2451 4.37393 44.1406 4.62608 44.1406 4.88281C44.1406 5.13954 44.2451 5.39169 44.4267 5.57327C44.6083 5.75485 44.8605 5.85938 45.1172 5.85938C45.3739 5.85938 45.6261 5.75485 45.8076 5.57327C45.9892 5.39169 46.0938 5.13954 46.0938 4.88281C46.0938 4.62608 45.9892 4.37393 45.8076 4.19235C45.6261 4.01077 45.3739 3.90625 45.1172 3.90625Z" fill="#1A064F"/>
<path id="Vector_6" d="M41.1455 3.90625C40.8888 3.90625 40.637 4.01077 40.4554 4.19235C40.2735 4.37393 40.1689 4.62608 40.1689 4.88281C40.1689 5.13954 40.2735 5.39169 40.4554 5.57327C40.637 5.75485 40.8888 5.85938 41.1455 5.85938C41.4026 5.85938 41.6544 5.75485 41.836 5.57327C42.0175 5.39169 42.1221 5.13954 42.1221 4.88281C42.1221 4.62608 42.0179 4.37393 41.836 4.19235C41.6544 4.01077 41.4034 3.90625 41.1455 3.90625Z" fill="#1A064F"/>
<path id="Vector_7" d="M13.1184 33.2035H5.66406C5.12466 33.2035 4.6875 33.6407 4.6875 34.1801C4.6875 34.7195 5.12466 35.1566 5.66406 35.1566H13.1184C13.6578 35.1566 14.0949 34.7195 14.0949 34.1801C14.0949 33.6407 13.6578 33.2035 13.1184 33.2035Z" fill="#1A064F"/>
<path id="Vector_8" d="M13.1184 38.6726H5.66406C5.12466 38.6726 4.6875 39.1098 4.6875 39.6492C4.6875 40.1886 5.12466 40.6257 5.66406 40.6257H13.1184C13.6578 40.6257 14.0949 40.1886 14.0949 39.6492C14.0949 39.1098 13.6578 38.6726 13.1184 38.6726Z" fill="#1A064F"/>
<path id="Vector_9" d="M13.1184 22.266H5.66406C5.12466 22.266 4.6875 22.7032 4.6875 23.2426C4.6875 23.782 5.12466 24.2191 5.66406 24.2191H13.1184C13.6578 24.2191 14.0949 23.782 14.0949 23.2426C14.0949 22.7032 13.6578 22.266 13.1184 22.266Z" fill="#1A064F"/>
<path id="Vector_10" d="M13.1184 27.7351H5.66406C5.12466 27.7351 4.6875 28.1723 4.6875 28.7117C4.6875 29.2511 5.12466 29.6882 5.66406 29.6882H13.1184C13.6578 29.6882 14.0949 29.2511 14.0949 28.7117C14.0949 28.1723 13.6578 27.7351 13.1184 27.7351Z" fill="#1A064F"/>
</g>
<defs>
<clipPath id="clip0_169_3709">
<rect width="50" height="50" fill="white"/>
</clipPath>
</defs>
</svg>
